<svg width="24" height="24" viewBox="0 0 24 24" fill="none" xmlns="http://www.w3.org/2000/svg">
<path d="M14.3919 4.8299C14.8313 4.39075 15.5435 4.39062 15.9827 4.8299C16.4219 5.26919 16.4219 5.9814 15.9827 6.42072L10.4027 11.9998L15.9827 17.5789C16.4219 18.0182 16.4218 18.7304 15.9827 19.1697C15.5434 19.6091 14.8313 19.609 14.3919 19.1697L8.01691 12.7957C7.98942 12.7682 7.96382 12.7393 7.93976 12.7098C7.84368 12.5919 7.77488 12.4593 7.73371 12.3201C7.67196 12.1114 7.67191 11.8882 7.73371 11.6795C7.75431 11.6099 7.7814 11.5417 7.81574 11.4764C7.85006 11.4111 7.89173 11.3488 7.93976 11.2899L8.01691 11.2049L14.3919 4.8299Z" fill="#3E4651"/>
</svg>
