<svg width="24" height="24" viewBox="0 0 24 24" fill="none" xmlns="http://www.w3.org/2000/svg">
<path fill-rule="evenodd" clip-rule="evenodd" d="M20.6705 17.5793C20.7982 17.707 20.8888 17.8577 20.9422 18.0181C20.9782 18.1259 20.9973 18.2381 20.9997 18.3505L21 18.375C21 18.5549 20.9571 18.7348 20.8713 18.898C20.8491 18.9403 20.8239 18.9815 20.7959 19.0213C20.5924 19.3108 20.2558 19.5 19.875 19.5H15C15 21.1569 13.6569 22.5 12 22.5C10.3431 22.5 9 21.1569 9 19.5H4.125C3.50368 19.5 3 18.9963 3 18.375C3 18.3662 3.0001 18.3573 3.00031 18.3485C3.00297 18.2333 3.02296 18.1223 3.05778 18.0181C3.11125 17.8577 3.20182 17.707 3.3295 17.5793L4.87502 16.0338C4.87529 14.0068 4.87937 12.3464 4.94059 10.9882C5.00609 9.53531 5.13927 8.34189 5.43973 7.35857C5.75147 6.33834 6.24594 5.5345 7.01238 4.88418C7.59875 4.38666 8.30634 4.01241 9.11239 3.68373C9.4679 2.42357 10.6261 1.5 12 1.5C13.3739 1.5 14.5321 2.42357 14.8876 3.68374C15.6937 4.01241 16.4012 4.38666 16.9876 4.88418C17.7541 5.5345 18.2485 6.33834 18.5603 7.35857C18.8607 8.34189 18.9939 9.53531 19.0594 10.9882C19.1206 12.3464 19.1247 14.0068 19.125 16.0338L20.6705 17.5793ZM11.0067 5.19882C11.1233 5.05189 11.204 4.87513 11.2354 4.68185C11.2461 4.61667 11.2512 4.55021 11.2502 4.48322C11.2591 4.07675 11.5914 3.75 12 3.75C12.4086 3.75 12.7409 4.07675 12.7498 4.48322C12.7488 4.55021 12.7539 4.61666 12.7646 4.68185C12.796 4.87516 12.8767 5.05194 12.9934 5.19888C13.0646 5.28886 13.15 5.36859 13.248 5.4342C13.3315 5.49039 13.423 5.53567 13.5204 5.56799C14.4959 5.92458 15.1103 6.24207 15.5319 6.59983C15.9256 6.93389 16.2046 7.3488 16.4085 8.01606C16.6236 8.72025 16.7483 9.68307 16.8117 11.0895C16.8747 12.4881 16.875 14.2401 16.875 16.4998C16.875 16.7773 16.9775 17.0443 17.1616 17.25H6.83836C7.02246 17.0443 7.125 16.7773 7.125 16.4998C7.125 14.2401 7.12526 12.4881 7.18831 11.0895C7.25172 9.68307 7.37635 8.72025 7.59152 8.01606C7.79541 7.3488 8.07437 6.93389 8.46808 6.59983C8.88972 6.24207 9.50407 5.92459 10.4795 5.568C10.577 5.53568 10.6685 5.49039 10.752 5.4342C10.85 5.36857 10.9355 5.28882 11.0067 5.19882ZM11.25 19.5C11.25 19.9142 11.5858 20.25 12 20.25C12.4142 20.25 12.75 19.9142 12.75 19.5H11.25Z" fill="#3E4651"/>
</svg>
