<svg width="24" height="24" viewBox="0 0 24 24" fill="none" xmlns="http://www.w3.org/2000/svg">
<path d="M6.1875 5.8125C6.1875 5.60539 6.35539 5.4375 6.5625 5.4375H7.6875C7.89461 5.4375 8.0625 5.60539 8.0625 5.8125V6.9375C8.0625 7.14461 7.89461 7.3125 7.6875 7.3125H6.5625C6.35539 7.3125 6.1875 7.14461 6.1875 6.9375V5.8125Z" fill="#65707D"/>
<path d="M9.5625 5.4375C9.35539 5.4375 9.1875 5.60539 9.1875 5.8125V6.9375C9.1875 7.14461 9.35539 7.3125 9.5625 7.3125H10.6875C10.8946 7.3125 11.0625 7.14461 11.0625 6.9375V5.8125C11.0625 5.60539 10.8946 5.4375 10.6875 5.4375H9.5625Z" fill="#65707D"/>
<path d="M6.1875 9.5625C6.1875 9.35539 6.35539 9.1875 6.5625 9.1875H7.6875C7.89461 9.1875 8.0625 9.35539 8.0625 9.5625V10.6875C8.0625 10.8946 7.89461 11.0625 7.6875 11.0625H6.5625C6.35539 11.0625 6.1875 10.8946 6.1875 10.6875V9.5625Z" fill="#65707D"/>
<path d="M9.5625 9.1875C9.35539 9.1875 9.1875 9.35539 9.1875 9.5625V10.6875C9.1875 10.8946 9.35539 11.0625 9.5625 11.0625H10.6875C10.8946 11.0625 11.0625 10.8946 11.0625 10.6875V9.5625C11.0625 9.35539 10.8946 9.1875 10.6875 9.1875H9.5625Z" fill="#65707D"/>
<path d="M6.1875 13.3125C6.1875 13.1054 6.35539 12.9375 6.5625 12.9375H7.6875C7.89461 12.9375 8.0625 13.1054 8.0625 13.3125V14.4375C8.0625 14.6446 7.89461 14.8125 7.6875 14.8125H6.5625C6.35539 14.8125 6.1875 14.6446 6.1875 14.4375V13.3125Z" fill="#65707D"/>
<path d="M9.5625 12.9375C9.35539 12.9375 9.1875 13.1054 9.1875 13.3125V14.4375C9.1875 14.6446 9.35539 14.8125 9.5625 14.8125H10.6875C10.8946 14.8125 11.0625 14.6446 11.0625 14.4375V13.3125C11.0625 13.1054 10.8946 12.9375 10.6875 12.9375H9.5625Z" fill="#65707D"/>
<path d="M6.1875 17.0625C6.1875 16.8554 6.35539 16.6875 6.5625 16.6875H7.6875C7.89461 16.6875 8.0625 16.8554 8.0625 17.0625V18.1875C8.0625 18.3946 7.89461 18.5625 7.6875 18.5625H6.5625C6.35539 18.5625 6.1875 18.3946 6.1875 18.1875V17.0625Z" fill="#65707D"/>
<path d="M9.5625 16.6875C9.35539 16.6875 9.1875 16.8554 9.1875 17.0625V18.1875C9.1875 18.3946 9.35539 18.5625 9.5625 18.5625H10.6875C10.8946 18.5625 11.0625 18.3946 11.0625 18.1875V17.0625C11.0625 16.8554 10.8946 16.6875 10.6875 16.6875H9.5625Z" fill="#65707D"/>
<path d="M15.9375 12.9375C15.7304 12.9375 15.5625 13.1054 15.5625 13.3125V14.4375C15.5625 14.6446 15.7304 14.8125 15.9375 14.8125H17.0625C17.2696 14.8125 17.4375 14.6446 17.4375 14.4375V13.3125C17.4375 13.1054 17.2696 12.9375 17.0625 12.9375H15.9375Z" fill="#65707D"/>
<path d="M15.5625 17.0625C15.5625 16.8554 15.7304 16.6875 15.9375 16.6875H17.0625C17.2696 16.6875 17.4375 16.8554 17.4375 17.0625V18.1875C17.4375 18.3946 17.2696 18.5625 17.0625 18.5625H15.9375C15.7304 18.5625 15.5625 18.3946 15.5625 18.1875V17.0625Z" fill="#65707D"/>
<path fill-rule="evenodd" clip-rule="evenodd" d="M21 20.25V11.625C21 10.1753 19.8247 9 18.375 9H14.625C14.4977 9 14.3725 9.00906 14.25 9.02658V4.125C14.25 2.67525 13.0747 1.5 11.625 1.5H5.625C4.17525 1.5 3 2.67525 3 4.125V20.25H2.625C2.00368 20.25 1.5 20.7537 1.5 21.375C1.5 21.9963 2.00368 22.5 2.625 22.5H21.375C21.9963 22.5 22.5 21.9963 22.5 21.375C22.5 20.7537 21.9963 20.25 21.375 20.25H21ZM5.25 3.75V20.25H12V3.75H5.25ZM14.25 20.25H18.75V11.25H14.25V20.25Z" fill="#65707D"/>
</svg>
