<svg width="20" height="20" viewBox="0 0 20 20" fill="none" xmlns="http://www.w3.org/2000/svg">
<path fill-rule="evenodd" clip-rule="evenodd" d="M13.75 1.25C13.2322 1.25 12.8125 1.66973 12.8125 2.1875V3.125H7.1875V2.1875C7.1875 1.66973 6.76777 1.25 6.25 1.25C5.73223 1.25 5.3125 1.66973 5.3125 2.1875V3.125H4.375C3.33947 3.125 2.5 3.96447 2.5 5V16.875C2.5 17.9105 3.33947 18.75 4.375 18.75H15.625C16.6605 18.75 17.5 17.9105 17.5 16.875V5C17.5 3.96447 16.6605 3.125 15.625 3.125H14.6875V2.1875C14.6875 1.66973 14.2678 1.25 13.75 1.25ZM15.625 5V6.875H4.375V5H15.625ZM4.375 16.875V8.75H15.625V16.875H4.375ZM10 10.1562C9.39594 10.1562 8.90625 10.6459 8.90625 11.25C8.90625 11.8541 9.39594 12.3438 10 12.3438C10.6041 12.3438 11.0938 11.8541 11.0938 11.25C11.0938 10.6459 10.6041 10.1562 10 10.1562ZM10 13.2812C9.39594 13.2812 8.90625 13.7709 8.90625 14.375C8.90625 14.9791 9.39594 15.4688 10 15.4688C10.6041 15.4688 11.0938 14.9791 11.0938 14.375C11.0938 13.7709 10.6041 13.2812 10 13.2812ZM12.5 11.25C12.5 10.6459 12.9897 10.1562 13.5938 10.1562C14.1978 10.1562 14.6875 10.6459 14.6875 11.25C14.6875 11.8541 14.1978 12.3438 13.5938 12.3438C12.9897 12.3438 12.5 11.8541 12.5 11.25ZM6.40625 13.2812C5.80219 13.2812 5.3125 13.7709 5.3125 14.375C5.3125 14.9791 5.80219 15.4688 6.40625 15.4688C7.01031 15.4688 7.5 14.9791 7.5 14.375C7.5 13.7709 7.01031 13.2812 6.40625 13.2812ZM5.3125 11.25C5.3125 10.6459 5.80219 10.1562 6.40625 10.1562C7.01031 10.1562 7.5 10.6459 7.5 11.25C7.5 11.8541 7.01031 12.3438 6.40625 12.3438C5.80219 12.3438 5.3125 11.8541 5.3125 11.25Z" fill="#3E4651"/>
</svg>
