<svg width="24" height="24" viewBox="0 0 24 24" fill="none" xmlns="http://www.w3.org/2000/svg">
<path fill-rule="evenodd" clip-rule="evenodd" d="M12.0078 22.5736L12.0001 22.5735C12.5574 22.5723 13.1068 22.4401 13.61 22.1769L20.61 18.5369C21.7767 17.938 22.5 16.748 22.5 15.4336V8.56578C22.5 7.25911 21.7844 6.06911 20.6178 5.46245L13.6178 1.82245C12.6067 1.29356 11.4011 1.29356 10.39 1.82245L3.39 5.46245C2.22333 6.06134 1.5 7.25134 1.5 8.56578V15.4336C1.5 16.7402 2.22333 17.9302 3.39 18.5369L10.39 22.1769C10.8932 22.4401 11.4503 22.5723 12.0001 22.5735L11.9922 22.5736H12.0078ZM12.0078 3.75911C11.8211 3.75911 11.6344 3.80578 11.4711 3.89134L9.53652 4.89733L16.9783 8.60945L19.1322 7.53134C19.2123 7.49129 19.2948 7.46133 19.3783 7.44099L12.5444 3.89134C12.3733 3.80578 12.1867 3.75911 12.0078 3.75911ZM14.3724 9.91386L6.9803 6.22656L4.62673 7.45041C4.69787 7.4702 4.76815 7.49708 4.83667 7.53134L11.9844 11.1091L14.3724 9.91386ZM15.7489 11.8308L13.1511 13.131V19.7966L19.5522 16.468C19.9411 16.2658 20.1822 15.8691 20.1822 15.4336V9.61186L20.1744 9.61578L18.0822 10.663V13.7069C18.0822 14.3524 17.5611 14.8736 16.9156 14.8736C16.27 14.8736 15.7489 14.3524 15.7489 13.7069V11.8308ZM3.84111 15.4336V9.63916L10.8178 13.1346V19.7683L4.47111 16.468C4.08222 16.2658 3.84111 15.8691 3.84111 15.4336Z" fill="#65707D"/>
</svg>
