<svg width="24" height="24" viewBox="0 0 24 24" fill="none" xmlns="http://www.w3.org/2000/svg">
<path fill-rule="evenodd" clip-rule="evenodd" d="M20.25 6H3.75L3.75 18H20.25V6ZM3.75 3.75C2.50736 3.75 1.5 4.75736 1.5 6V18C1.5 19.2426 2.50736 20.25 3.75 20.25H20.25C21.4926 20.25 22.5 19.2426 22.5 18V6C22.5 4.75736 21.4926 3.75 20.25 3.75H3.75Z" fill="#65707D"/>
<path fill-rule="evenodd" clip-rule="evenodd" d="M9.375 9.75H7.125V14.25H9.375V9.75ZM5.25 7.875V16.125H11.25V7.875H5.25Z" fill="#65707D"/>
<path d="M12.75 7.875H18.75V9.75H12.75V7.875Z" fill="#65707D"/>
<path d="M12.75 11.0625H18.75V12.9375H12.75V11.0625Z" fill="#65707D"/>
<path d="M12.75 14.25H18.75V16.125H12.75V14.25Z" fill="#65707D"/>
</svg>
