<svg width="16" height="16" viewBox="0 0 16 16" fill="none" xmlns="http://www.w3.org/2000/svg">
<path fill-rule="evenodd" clip-rule="evenodd" d="M6.4 4.75C6.2 5.55 5.55 6.2 4.75 6.4V9.55C5.75 9.8 6.5 10.75 6.5 11.85C6.5 13.15 5.45 14.25 4.1 14.25C2.75 14.25 1.75 13.2 1.75 11.85C1.75 10.85 2.35 10 3.25 9.65V6.35C2.35 6 1.75 5.15 1.75 4.15C1.75 2.8 2.8 1.75 4.15 1.75C5.15 1.75 6 2.35 6.35 3.25H9.7C10.05 2.35 10.9 1.75 11.9 1.75C13.2 1.75 14.25 2.8 14.25 4.15C14.25 5.5 13.2 6.55 11.85 6.55C10.75 6.55 9.85 5.8 9.55 4.8H6.4V4.75ZM5 4.15C5 4.65 4.6 5.05 4.1 5.05C3.6 5.05 3.25 4.6 3.25 4.15C3.25 3.7 3.65 3.25 4.15 3.25C4.65 3.25 5 3.65 5 4.15ZM5 11.85C5 12.35 4.6 12.75 4.1 12.75C3.6 12.75 3.25 12.35 3.25 11.85C3.25 11.35 3.65 10.95 4.15 10.95C4.65 10.95 5 11.4 5 11.85ZM11.85 5C12.35 5 12.75 4.6 12.75 4.1C12.75 3.6 12.35 3.25 11.85 3.25C11.35 3.25 10.95 3.65 10.95 4.15C10.95 4.65 11.4 5 11.85 5ZM14.25 11.85C14.25 13.15 13.2 14.25 11.85 14.25C10.5 14.25 9.45 13.2 9.45 11.85C9.45 10.5 10.5 9.45 11.85 9.45C13.2 9.45 14.25 10.55 14.25 11.85ZM12.75 11.85C12.75 12.35 12.35 12.75 11.85 12.75C11.35 12.75 10.95 12.35 10.95 11.85C10.95 11.35 11.35 10.95 11.85 10.95C12.35 10.95 12.75 11.4 12.75 11.85Z" fill="#CF0F39"/>
</svg>
