<svg width="149" height="106" viewBox="0 0 149 106" fill="none" xmlns="http://www.w3.org/2000/svg">
<mask id="mask0_1926_12919" style="mask-type:alpha" maskUnits="userSpaceOnUse" x="44" y="0" width="96" height="106">
<path d="M139.73 0H44.5259V106H139.73V0Z" fill="#EDF5FD"/>
</mask>
<g mask="url(#mask0_1926_12919)">
<path d="M124.55 29.5654C124.468 28.5625 124.065 27.6125 123.401 26.8572C122.735 26.1017 121.845 25.5813 120.86 25.3732L120.32 20.1747L119.91 16.1875C119.822 15.3241 119.669 14.4687 119.45 13.6287C118.855 11.3169 117.761 9.16324 116.246 7.31858C114.791 5.43683 112.88 3.95736 110.694 3.02016C108.508 2.08295 106.119 1.71902 103.753 1.96277C101.387 2.20652 99.1219 3.0499 97.1723 4.41313C95.2236 5.77636 93.6544 7.61435 92.6143 9.75323C91.5041 11.868 90.8681 14.1994 90.7508 16.585C90.712 17.4529 90.7347 18.3226 90.8189 19.1872C91.1379 20.5427 91.3461 21.9219 91.4398 23.3112C91.6944 27.2302 92.0616 30.7144 92.266 32.0062C92.6275 33.9652 93.1509 35.891 93.8314 37.7635C94.457 39.3925 95.34 40.9106 96.4454 42.2601C97.7581 43.9305 99.4343 45.2793 101.346 46.2039C101.722 46.381 102.046 46.6515 102.288 46.9898C102.529 47.328 102.68 47.7224 102.725 48.1355L102.917 50.2967L103.638 57.0043C103.718 57.6533 104.049 58.2449 104.562 58.6507C105.075 59.0565 105.727 59.2437 106.377 59.1718L112.625 58.5508C113.276 58.4893 113.876 58.1737 114.295 57.6727C114.715 57.1717 114.921 56.5254 114.867 55.8739L113.967 47.1355C113.925 46.7171 113.994 46.2953 114.166 45.9118C114.339 45.5282 114.607 45.1965 114.948 44.9493C116.703 43.6397 118.127 41.9383 119.109 39.9807C120.018 38.2372 120.606 36.3435 120.842 34.3911C122.885 33.8073 124.798 31.9316 124.55 29.5654Z" fill="#FFD09F"/>
<mask id="mask1_1926_12919" style="mask-type:luminance" maskUnits="userSpaceOnUse" x="52" y="-10" width="113" height="112">
<path d="M164.172 -9.81543H52.3794V101.978H164.172V-9.81543Z" fill="white"/>
</mask>
<g mask="url(#mask1_1926_12919)">
<path d="M94.7163 51.5388C96.0763 50.9995 97.4808 50.5837 98.9156 50.2967C99.7769 50.1242 100.648 50.0019 101.524 49.9302V49.7315C101.525 49.5109 101.589 49.2951 101.71 49.1104C101.789 48.9432 101.929 48.8129 102.101 48.7468C102.274 48.6809 102.466 48.6843 102.635 48.7564C103.983 49.2968 104.623 49.688 105.965 49.8495H109.318C110.965 49.6845 112.588 49.3345 114.156 48.8061C114.37 48.7152 114.611 48.711 114.828 48.7945C115.045 48.878 115.22 49.0425 115.317 49.2533C115.388 49.405 115.424 49.5704 115.423 49.7377V49.9426C116.468 50.0282 117.505 50.1838 118.528 50.4085C119.798 50.6887 121.044 51.0666 122.255 51.5388C132.447 55.5323 139.763 66.2645 139.763 78.9094V95.4854H77.2397V78.9094C77.2397 66.2645 84.5498 55.5323 94.7419 51.5388" fill="white"/>
<path d="M77.2153 78.9097C77.2153 66.2646 84.5254 55.5325 94.7175 51.5391C96.0766 50.9997 97.4821 50.584 98.9159 50.2969C100.245 54.6817 101.046 55.8555 101.046 58.1411V95.4799H77.2153V78.9097Z" fill="#14B165"/>
<path d="M118.529 50.4264C119.798 50.7066 121.044 51.0845 122.256 51.5567C132.447 55.5502 139.764 66.2823 139.764 78.9274V95.5034H109.952V59.2642C109.952 57.0036 115.846 53.0535 118.579 50.4077" fill="#14B165"/>
<path d="M95.929 47.6141C96.8082 48.003 97.5531 48.6439 98.0679 49.4559C98.5837 50.2678 98.8468 51.2143 98.8241 52.1757C98.8014 53.1371 98.4948 54.0702 97.942 54.8571C97.3893 55.644 96.6151 56.2493 95.7189 56.5966C94.8217 56.9438 93.8421 57.0175 92.9032 56.808C91.9653 56.5987 91.1098 56.1156 90.4454 55.4202C89.781 54.7246 89.3381 53.8479 89.1724 52.9006C89.0068 51.9534 89.1251 50.9782 89.5131 50.0984C89.7715 49.5139 90.1416 48.9859 90.6044 48.5447C91.0662 48.1034 91.6104 47.7576 92.2067 47.5269C92.802 47.2961 93.438 47.1851 94.0768 47.2001C94.7147 47.215 95.345 47.3558 95.929 47.6141Z" fill="#FFD09F"/>
<path d="M95.0335 55.8313C95.272 55.8296 95.5039 55.7597 95.7036 55.6297C95.9024 55.4998 96.0604 55.3154 96.1579 55.0984L98.276 50.3223L102.623 48.6393C102.881 48.4919 103.077 48.2572 103.177 47.9775C103.276 47.6979 103.272 47.3919 103.166 47.1149C103.059 46.8379 102.857 46.6082 102.596 46.4674C102.334 46.3267 102.031 46.2841 101.741 46.3475L97.0646 48.1486C96.6548 48.3082 96.3245 48.6228 96.1456 49.0243L93.8912 54.1047C93.7625 54.4025 93.7549 54.7387 93.8713 55.0417C93.9877 55.3446 94.2177 55.59 94.5121 55.7257C94.6767 55.7966 94.8547 55.8325 95.0335 55.8313Z" fill="#FFD09F"/>
<path d="M94.3627 56.4103C94.5642 56.4093 94.7611 56.3596 94.939 56.2654C95.116 56.1714 95.2684 56.0357 95.382 55.8699L96.512 54.1869L103.033 51.7025C103.293 51.5572 103.492 51.3235 103.594 51.0439C103.695 50.7642 103.693 50.4574 103.588 50.1791C103.483 49.9007 103.281 49.6694 103.02 49.5273C102.758 49.3851 102.455 49.3417 102.164 49.4046L95.3943 51.9696C95.028 52.1091 94.7223 52.3729 94.5311 52.7149L93.3443 54.4788C93.2251 54.6645 93.1579 54.8786 93.1484 55.0993C93.1399 55.3198 93.19 55.5388 93.2932 55.7336C93.3973 55.9284 93.5506 56.0922 93.739 56.2078C93.9273 56.3235 94.1421 56.3869 94.3627 56.3917V56.4103Z" fill="#FFD09F"/>
<path d="M92.8979 53.6927C93.1345 53.6915 93.3663 53.6225 93.566 53.4937C93.7648 53.365 93.9228 53.1819 94.0213 52.966L96.04 48.4073C96.1072 48.2661 96.2245 48.1553 96.3694 48.0968L100.506 46.5007C100.682 46.4646 100.85 46.3903 100.995 46.2831C101.14 46.1758 101.26 46.0381 101.347 45.8798C101.434 45.7214 101.485 45.5459 101.496 45.3658C101.508 45.1856 101.481 45.0049 101.416 44.8365C101.351 44.668 101.25 44.5157 101.12 44.3903C100.991 44.2648 100.835 44.1692 100.664 44.1101C100.494 44.0509 100.312 44.0296 100.132 44.0478C99.9525 44.066 99.7793 44.123 99.6241 44.2151L95.4873 45.8113C95.1153 45.953 94.7746 46.1669 94.486 46.4408C94.1973 46.7148 93.9654 47.0433 93.8045 47.4074L91.7801 51.9723C91.6533 52.2694 91.6467 52.6042 91.7631 52.9056C91.8786 53.207 92.1076 53.4515 92.401 53.5871C92.5571 53.6575 92.7265 53.6936 92.8979 53.6927Z" fill="#FFD09F"/>
<path d="M88.7544 56.0598C88.9901 56.0576 89.221 55.9879 89.4188 55.8592C89.6166 55.7305 89.7737 55.548 89.8722 55.3332L93.4307 47.3214C93.7951 46.5105 94.4642 45.8765 95.2943 45.5575L98.3683 44.3713C98.5452 44.3352 98.7118 44.2609 98.8576 44.1537C99.0024 44.0464 99.1226 43.9087 99.2096 43.7504C99.2967 43.592 99.3478 43.4165 99.3592 43.2364C99.3715 43.0562 99.344 42.8755 99.2787 42.7071C99.2134 42.5386 99.1131 42.3863 98.9825 42.2609C98.8528 42.1354 98.6976 42.0398 98.5263 41.9807C98.356 41.9215 98.1742 41.9002 97.9954 41.9184C97.8156 41.9366 97.6414 41.9936 97.4862 42.0857L94.381 43.272C92.9481 43.8254 91.7934 44.9242 91.1697 46.3276L87.6112 54.3457C87.4843 54.6428 87.4787 54.9775 87.5951 55.2789C87.7105 55.5805 87.9396 55.8249 88.233 55.9605C88.3967 56.0331 88.5746 56.067 88.7544 56.0598Z" fill="#FFD09F"/>
<path d="M94.4125 54.8184L94.4617 61.2898L87.5746 61.3334L87.5244 54.8618L94.4125 54.8184Z" fill="#FFD09F"/>
<path d="M85.8535 87.3367V60.8605C85.8535 60.6161 85.95 60.3817 86.1223 60.2083C86.2945 60.035 86.5283 59.9368 86.7725 59.9351H95.3434C95.5771 59.9343 95.8014 60.0216 95.9727 60.1792C96.145 60.337 96.25 60.5537 96.269 60.786L96.5359 91.5725H90.0897C88.9663 91.5725 87.8883 91.1262 87.0943 90.3319C86.3002 89.5376 85.8535 88.4601 85.8535 87.3367Z" fill="#14B165"/>
<path d="M94.2144 95.0371C94.2134 95.9986 94.4973 96.9394 95.0311 97.7401C95.5649 98.5407 96.3239 99.1654 97.2117 99.5345C98.1004 99.9036 99.0781 100 100.023 99.8137C100.966 99.6263 101.833 99.1635 102.514 98.4839C103.194 97.8044 103.658 96.9375 103.846 95.9939C104.035 95.0503 103.939 94.0726 103.571 93.1836C103.203 92.2946 102.58 91.5347 101.78 91.0002C100.979 90.4655 100.04 90.1802 99.0771 90.1802C97.789 90.1802 96.553 90.6916 95.6406 91.6023C94.7292 92.5129 94.2163 93.7482 94.2144 95.0371Z" fill="#FFD09F"/>
<path d="M91.5624 101.975C91.8879 101.974 92.2003 101.845 92.4321 101.615L95.7418 98.3042H100.972C101.263 98.2579 101.529 98.1093 101.72 97.884C101.913 97.6597 102.018 97.3739 102.018 97.0777C102.018 96.7824 101.913 96.4966 101.72 96.2723C101.529 96.047 101.263 95.8984 100.972 95.8511H95.3822C95.1635 95.8501 94.9477 95.8927 94.7462 95.976C94.5446 96.0593 94.3619 96.1814 94.2076 96.3357L90.668 99.8819C90.4418 100.114 90.3159 100.425 90.3159 100.749C90.3159 101.073 90.4418 101.383 90.668 101.615C90.7844 101.733 90.9235 101.827 91.0778 101.888C91.2311 101.951 91.3967 101.98 91.5624 101.975Z" fill="#FFD09F"/>
<path d="M95.761 101.975C96.0866 101.974 96.3989 101.845 96.6308 101.615L99.9405 98.3042H105.17C105.462 98.2579 105.728 98.1093 105.919 97.884C106.111 97.6597 106.216 97.3739 106.216 97.0777C106.216 96.7824 106.111 96.4966 105.919 96.2723C105.728 96.047 105.462 95.8984 105.17 95.8511H99.5808C99.3622 95.8501 99.1464 95.8927 98.9448 95.976C98.7432 96.0593 98.5606 96.1814 98.4063 96.3357L94.86 99.8819C94.6963 100.057 94.5865 100.275 94.543 100.51C94.5004 100.746 94.5259 100.989 94.6177 101.21C94.7095 101.431 94.8638 101.621 95.0607 101.757C95.2585 101.893 95.4903 101.969 95.7298 101.975H95.761Z" fill="#FFD09F"/>
<path d="M90.4817 99.1305C90.8073 99.1296 91.1196 98.9999 91.3515 98.7709L94.4567 95.6657C94.5097 95.6098 94.5731 95.5663 94.6441 95.5369C94.7142 95.5067 94.7899 95.4915 94.8665 95.4915H99.8353C100.127 95.4451 100.393 95.2956 100.584 95.0713C100.776 94.8461 100.881 94.5602 100.881 94.2647C100.881 93.9692 100.776 93.6834 100.584 93.4586C100.393 93.2337 100.127 93.0847 99.8353 93.0381H94.8665C94.4681 93.0373 94.0734 93.116 93.7053 93.2696C93.3371 93.4231 93.004 93.6484 92.7238 93.9325L89.5807 97.0692C89.417 97.2434 89.3072 97.461 89.2637 97.6967C89.2211 97.9324 89.2466 98.1756 89.3384 98.3971C89.4302 98.6176 89.5845 98.8078 89.7814 98.9431C89.9792 99.0794 90.2111 99.1551 90.4505 99.1618L90.4817 99.1305Z" fill="#FFD09F"/>
<path d="M89.4007 96.3052C89.5616 96.3052 89.7206 96.274 89.8692 96.2125C90.0168 96.15 90.1512 96.0592 90.2638 95.9446L92.5996 93.6159C92.9082 93.3034 93.2754 93.0558 93.6804 92.8872C94.0855 92.7187 94.5209 92.6328 94.9591 92.6345H104.785C105.073 92.5841 105.334 92.4338 105.521 92.21C105.71 91.9862 105.813 91.7033 105.813 91.4111C105.813 91.1187 105.71 90.8358 105.521 90.6121C105.334 90.3883 105.073 90.238 104.785 90.1875H94.9591C94.1991 90.1855 93.4457 90.3343 92.7435 90.6253C92.0403 90.9164 91.4024 91.3439 90.8667 91.8831L88.5309 94.212C88.3672 94.3864 88.2574 94.6046 88.2139 94.8402C88.1713 95.0758 88.1968 95.3191 88.2886 95.5396C88.3804 95.761 88.5347 95.9513 88.7316 96.0866C88.9294 96.2229 89.1612 96.2986 89.4007 96.3052Z" fill="#FFD09F"/>
<path d="M99.6118 91.4111H106.083V97.0633H99.6118V91.4111Z" fill="#FFD09F"/>
<path d="M105.76 89.5556L129.051 89.3755V55.5396C135.528 60.8249 139.739 69.3087 139.739 78.9042V96.0953C139.644 97.1478 139.159 98.1273 138.379 98.84C137.598 99.5526 136.579 99.9473 135.522 99.9464H105.854C105.609 99.9464 105.375 99.8498 105.201 99.6776C105.028 99.5053 104.93 99.2716 104.928 99.0274V90.4562C104.933 90.2304 105.02 90.0142 105.173 89.8483C105.327 89.6824 105.536 89.5783 105.76 89.5556Z" fill="#14B165"/>
</g>
<path d="M102.439 34.1399C102.458 34.3267 102.532 34.5035 102.652 34.6482C102.772 34.7928 102.932 34.8987 103.112 34.9524C103.292 35.0063 103.484 35.0055 103.663 34.9504C103.842 34.8952 104.001 34.7881 104.121 34.6426C104.239 34.497 104.312 34.3196 104.33 34.1326C104.348 33.9457 104.31 33.7577 104.221 33.5922C104.132 33.4268 103.997 33.2915 103.83 33.2032C103.664 33.115 103.476 33.0778 103.29 33.0965C103.165 33.1089 103.044 33.1458 102.934 33.205C102.824 33.2642 102.726 33.3445 102.647 33.4415C102.568 33.5385 102.509 33.6501 102.474 33.7699C102.438 33.8897 102.426 34.0155 102.439 34.1399Z" fill="#F1851B"/>
<path d="M106.328 25.8311C106.604 25.5351 106.937 25.2994 107.308 25.1391C107.679 24.9787 108.079 24.8971 108.483 24.8995C109.316 24.9141 110.119 25.2145 110.756 25.7504C110.826 25.8063 110.871 25.8879 110.881 25.977C110.891 26.0661 110.865 26.1555 110.808 26.2255C110.753 26.2955 110.671 26.3404 110.582 26.3503C110.493 26.3602 110.403 26.3342 110.333 26.2783C109.346 25.4647 107.793 25.2411 106.85 26.2783C106.558 26.595 106.03 26.1727 106.328 25.8559" fill="#876236"/>
<path d="M109.489 34.2218C109.977 34.1686 110.422 33.9255 110.732 33.5454C111.041 33.1652 111.188 32.6787 111.142 32.1909L110.899 29.8122C110.801 29.3653 110.542 28.9701 110.171 28.702C109.801 28.4339 109.343 28.3116 108.888 28.3584C108.433 28.4052 108.011 28.6178 107.703 28.9559C107.395 29.2939 107.221 29.7335 107.216 30.1911L107.465 32.5698C107.518 33.0556 107.76 33.5012 108.139 33.8102C108.517 34.1192 109.003 34.2671 109.489 34.2218Z" fill="white"/>
<path d="M108.83 33.898C109.149 33.8589 109.439 33.6981 109.643 33.4492C109.845 33.2003 109.944 32.8825 109.917 32.5626L109.755 30.9851C109.77 30.8031 109.745 30.6203 109.68 30.4493C109.617 30.2783 109.516 30.1236 109.385 29.9961C109.255 29.8685 109.097 29.7713 108.925 29.7114C108.753 29.6515 108.569 29.6303 108.388 29.6493C108.206 29.6684 108.031 29.7271 107.875 29.8215C107.719 29.916 107.585 30.0436 107.484 30.1954C107.383 30.3473 107.316 30.5196 107.289 30.7001C107.261 30.8806 107.275 31.0648 107.327 31.2397L107.489 32.8111C107.527 33.1308 107.689 33.4229 107.939 33.6257C108.19 33.8285 108.509 33.9261 108.83 33.898Z" fill="#005BAC"/>
<path d="M98.4839 27.1147C97.353 26.3136 95.8813 26.8478 95.0796 27.8414C95.0238 27.9106 94.9424 27.9547 94.8544 27.9641C94.7654 27.9733 94.6774 27.9471 94.6083 27.8911C94.5392 27.8352 94.4947 27.754 94.4853 27.6654C94.4758 27.5769 94.5023 27.4883 94.5582 27.4191C95.0711 26.7617 95.7951 26.3011 96.6081 26.1148C97.0047 26.0322 97.4135 26.032 97.8101 26.1143C98.2057 26.1965 98.5814 26.3595 98.9117 26.5931C99.2657 26.8415 98.8379 27.3632 98.4839 27.1147Z" fill="#876236"/>
<path d="M98.098 35.3956C97.6106 35.4427 97.1232 35.2956 96.7437 34.9864C96.3632 34.6772 96.12 34.2307 96.067 33.7435L95.8247 31.3649C95.7641 31.1072 95.7594 30.8395 95.8105 30.5798C95.8616 30.3202 95.9676 30.0744 96.1209 29.8588C96.2752 29.6432 96.473 29.4628 96.7011 29.3297C96.9301 29.1965 97.1847 29.1136 97.4478 29.0864C97.7109 29.0594 97.9768 29.0886 98.2286 29.1724C98.4794 29.256 98.7094 29.3923 98.9043 29.5721C99.0984 29.7518 99.2517 29.9709 99.3548 30.2147C99.458 30.4585 99.5082 30.7214 99.5015 30.986L99.7495 33.3647C99.7968 33.8525 99.6501 34.3391 99.3406 34.7192C99.0312 35.0993 98.5854 35.3423 98.098 35.3956Z" fill="white"/>
<path d="M97.4651 35.0725C97.1433 35.1005 96.8234 35.0021 96.5736 34.7979C96.3228 34.5939 96.1619 34.3002 96.124 33.9794L95.9622 32.4081C95.913 32.2337 95.9035 32.0505 95.9319 31.8717C95.9612 31.6929 96.0294 31.5225 96.1306 31.3727C96.2329 31.2229 96.3663 31.0971 96.5225 31.0044C96.6777 30.9115 96.8518 30.8539 97.0316 30.8355C97.2124 30.8171 97.3941 30.8383 97.5654 30.8978C97.7367 30.9573 97.8929 31.0535 98.0225 31.1796C98.1532 31.3058 98.2544 31.4589 98.3188 31.6281C98.3831 31.7975 98.4096 31.9789 98.3973 32.1597L98.5582 33.7309C98.5866 34.0528 98.4882 34.3729 98.2838 34.6233C98.0803 34.8738 97.7869 35.0349 97.4651 35.0725Z" fill="#005BAC"/>
<path d="M104.501 39.6529C104.749 39.6545 104.997 39.6316 105.24 39.5846C105.817 39.4819 106.365 39.264 106.856 38.9438C107.346 38.6236 107.766 38.2078 108.091 37.7214C108.115 37.6798 108.132 37.6338 108.138 37.586C108.146 37.5382 108.143 37.4895 108.131 37.4427C108.118 37.396 108.097 37.3521 108.068 37.3136C108.039 37.275 108.003 37.2427 107.96 37.2183C107.876 37.1703 107.777 37.157 107.683 37.1813C107.588 37.2058 107.508 37.2658 107.458 37.3488C107.187 37.7455 106.841 38.0839 106.437 38.3443C106.034 38.6046 105.583 38.7814 105.11 38.8642C104.173 39.0269 103.209 38.8151 102.426 38.2742C102.351 38.2141 102.253 38.1868 102.157 38.1985C102.059 38.2101 101.971 38.2597 101.912 38.3363C101.851 38.4128 101.824 38.5102 101.836 38.6068C101.847 38.7036 101.896 38.7916 101.973 38.8518C102.709 39.3817 103.594 39.6624 104.501 39.6529Z" fill="#F1851B"/>
<mask id="mask2_1926_12919" style="mask-type:luminance" maskUnits="userSpaceOnUse" x="51" y="-15" width="113" height="113">
<path d="M163.908 -14.8027H51.7563V97.3491H163.908V-14.8027Z" fill="white"/>
</mask>
<g mask="url(#mask2_1926_12919)">
<path d="M88.8775 9.68783C89.8694 7.94074 91.3193 6.49711 93.0702 5.51222C94.8211 4.52733 96.8067 4.03845 98.815 4.09816C99.8892 1.50829 103.013 -0.317657 110.765 0.7009C124.937 2.56411 124.428 21.2398 124.627 23.1091C124.762 24.019 125.052 24.8992 125.483 25.7114C125.506 25.7544 125.517 25.8028 125.513 25.8512C125.51 25.8997 125.493 25.9462 125.465 25.9855C125.436 26.0249 125.397 26.0556 125.353 26.0741C125.307 26.0926 125.258 26.0981 125.211 26.0903C124.782 26.1948 124.34 26.2366 123.9 26.2146C123.522 26.1968 123.148 26.1385 122.782 26.0406L122.347 25.9164C121.987 26.8538 121.428 27.7015 120.708 28.4007C120.677 28.4276 120.638 28.4446 120.596 28.4496C120.555 28.4547 120.514 28.4475 120.476 28.4289C120.439 28.4104 120.409 28.3813 120.388 28.3453C120.367 28.3094 120.358 28.2682 120.36 28.2268C120.37 27.3434 120.307 26.4605 120.174 25.5873C118.894 25.3139 114.584 25.0469 113.106 23.3141C110.001 19.6374 107.566 10.1536 102.063 11.2653C101.802 11.3212 101.554 11.3585 101.312 11.3895H101.156L100.536 11.4454H99.9148H99.61H99.3053C99.0942 11.4454 98.8898 11.3958 98.6844 11.3585C98.1582 11.2562 97.649 11.0761 97.1758 10.8244C96.4925 12.2466 95.2441 12.6875 93.3437 15.2712C93.0096 15.9158 92.7087 16.5771 92.4427 17.2524C90.8593 21.2708 92.1077 29.5807 92.5232 32.4004C92.2506 31.9705 91.9534 31.5559 91.6354 31.1582L90.7477 32.4935C90.6994 32.5374 90.6407 32.568 90.5782 32.5828C90.5148 32.5976 90.4486 32.5958 90.3861 32.5777C90.3237 32.5596 90.2669 32.5258 90.2214 32.4795C90.176 32.4333 90.1429 32.3761 90.1259 32.3134C89.0204 28.6739 85.176 16.3954 88.8775 9.68783Z" fill="#876236"/>
</g>
<path d="M50.4291 102.701H86.6814C86.8622 102.697 87.0392 102.654 87.2019 102.576C87.3647 102.496 87.5076 102.383 87.6222 102.242C87.7367 102.102 87.8181 101.94 87.8625 101.764C87.907 101.588 87.9137 101.406 87.8796 101.228L82.9108 77.8449C82.8484 77.5743 82.6969 77.3324 82.4811 77.1578C82.2644 76.9833 81.9966 76.8863 81.7183 76.8823H45.4668C45.286 76.8855 45.1082 76.9281 44.9456 77.0072C44.783 77.0862 44.6397 77.1998 44.5256 77.3399C44.4114 77.48 44.3293 77.6434 44.2848 77.8186C44.2403 77.9938 44.2346 78.1766 44.2681 78.3542L49.2366 101.731C49.2979 102.003 49.4488 102.246 49.6651 102.422C49.8814 102.598 50.1505 102.696 50.4291 102.701Z" fill="#B5D3F7"/>
<path d="M87.4451 102.434C87.6325 102.301 87.7745 102.115 87.8521 101.899C87.9297 101.684 87.9392 101.449 87.8795 101.228L82.9108 77.8449C82.8483 77.5743 82.6969 77.3324 82.4811 77.1578C82.2653 76.9833 81.9965 76.8863 81.7192 76.8823L87.4451 102.434Z" fill="#82B5F7"/>
<path d="M50.1925 105.292H96.8415C97.0649 105.292 97.2797 105.203 97.4387 105.045C97.5968 104.886 97.6857 104.671 97.6857 104.447V103.546C97.6857 103.322 97.5968 103.107 97.4387 102.949C97.2797 102.791 97.0649 102.702 96.8415 102.702H50.18C49.956 102.702 49.7412 102.791 49.5828 102.949C49.4244 103.107 49.3354 103.322 49.3354 103.546V104.447C49.3354 104.671 49.4244 104.886 49.5828 105.045C49.7412 105.203 49.956 105.292 50.18 105.292" fill="#B5D3F7"/>
</g>
<path d="M16.974 75.4905C25.7369 75.4905 32.8406 68.3868 32.8406 59.6239C32.8406 50.861 25.7369 43.7573 16.974 43.7573C8.21114 43.7573 1.10742 50.861 1.10742 59.6239C1.10742 68.3868 8.21114 75.4905 16.974 75.4905Z" fill="white"/>
<path fill-rule="evenodd" clip-rule="evenodd" d="M17.327 74.7209C25.5975 74.7209 32.302 68.0164 32.302 59.746C32.302 51.4756 25.5975 44.7711 17.327 44.7711C9.05663 44.7711 2.35214 51.4756 2.35214 59.746C2.35214 68.0164 9.05663 74.7209 17.327 74.7209ZM17.327 77.0247C26.8698 77.0247 34.6058 69.2888 34.6058 59.746C34.6058 50.2032 26.8698 42.4673 17.327 42.4673C7.78426 42.4673 0.0483398 50.2032 0.0483398 59.746C0.0483398 69.2888 7.78426 77.0247 17.327 77.0247Z" fill="#FAF7F5"/>
<path d="M21.5988 57.4727L21.038 58.742H15.9806C15.4332 58.742 14.9365 59.0664 14.7157 59.5676L11.2852 67.3778C11.528 67.5787 11.8305 67.7045 12.1615 67.7045H24.7003H12.1594H24.6981L28.3472 59.4064C28.7468 58.4947 28.0801 57.4727 27.0845 57.4727H21.5988Z" fill="#0081CC"/>
<path d="M21.4248 56.7817L24.6986 67.7046H12.1598C11.555 67.7046 11.0185 67.3094 10.8397 66.7311L7.82868 57.0047C7.5527 56.1151 8.21719 55.2144 9.14876 55.2144H19.2195C20.2129 55.2144 21.0981 55.8435 21.4248 56.7817Z" fill="#9CD8F6"/>
<path d="M21.5988 57.4729L21.038 58.7422H15.9806C15.4332 58.7422 14.9365 59.0667 14.7157 59.5678L11.2852 67.378C11.4662 67.5281 11.6826 67.6363 11.9188 67.6805C11.9982 67.6959 12.0777 67.7025 12.1615 67.7025H24.7003L21.6341 57.4707H21.6009L21.5988 57.4729Z" fill="#4AAEE4"/>
<path d="M34.432 42.274C44.886 42.274 53.3606 33.2344 53.3606 22.0835C53.3606 10.9326 44.886 1.89307 34.432 1.89307C23.978 1.89307 15.5034 10.9326 15.5034 22.0835C15.5034 33.2344 23.978 42.274 34.432 42.274Z" fill="white"/>
<path fill-rule="evenodd" clip-rule="evenodd" d="M34.8544 40.3711C44.7208 40.3711 52.7192 32.3727 52.7192 22.5063C52.7192 12.6399 44.7208 4.64149 34.8544 4.64149C24.988 4.64149 16.9896 12.6399 16.9896 22.5063C16.9896 32.3727 24.988 40.3711 34.8544 40.3711ZM34.8544 43.1195C46.2388 43.1195 55.4676 33.8907 55.4676 22.5063C55.4676 11.1219 46.2388 1.89307 34.8544 1.89307C23.47 1.89307 14.2412 11.1219 14.2412 22.5063C14.2412 33.8907 23.47 43.1195 34.8544 43.1195Z" fill="#FAF7F5"/>
<path fill-rule="evenodd" clip-rule="evenodd" d="M35.7548 17.8166C35.3168 17.9 34.8702 17.948 34.4139 17.948C32.3316 17.948 30.3635 17.0366 29.0141 15.4468C28.0654 14.3293 26.39 14.1936 25.2724 15.1412C24.1549 16.09 24.0181 17.7653 24.9668 18.8829C26.8836 21.1416 29.5162 22.6171 32.3903 23.0914C33.0495 21.0604 34.2152 19.2472 35.7548 17.8166Z" fill="#0081CC"/>
<path fill-rule="evenodd" clip-rule="evenodd" d="M37.0868 26.8981C37.0868 25.5039 37.5015 24.1983 38.2108 23.0924H38.2065V23.0913C35.6691 23.8606 32.4007 23.0935 32.3911 23.0913C32.0001 24.2965 31.7778 25.5733 31.7778 26.8981C31.7778 28.9592 32.295 31.002 33.2737 32.8044C33.7544 33.6912 34.6669 34.1934 35.6093 34.1934C36.0376 34.1934 36.4704 34.0898 36.8732 33.8707C38.1617 33.1709 38.6392 31.5598 37.9395 30.2712C37.3817 29.2434 37.0868 28.0766 37.0868 26.8971V26.8981Z" fill="#9CD8F6"/>
<path d="M40.8589 23.4565L38.207 23.0911L38.5724 20.4393C38.7744 18.9745 40.1249 17.951 41.5886 18.1528C43.0535 18.3548 44.077 19.7053 43.8751 21.169C43.6731 22.6339 42.3227 23.6575 40.8589 23.4555V23.4565Z" fill="#0081CC"/>
<path fill-rule="evenodd" clip-rule="evenodd" d="M45.5508 16.9072C45.3648 15.4531 44.0336 14.4241 42.5805 14.6101C39.9447 14.9477 37.5899 16.1123 35.7533 17.8164C34.2126 19.246 33.048 21.0602 32.3877 23.0912C32.3877 23.0912 35.6636 23.8627 38.2043 23.0912L38.5686 20.4405C38.7705 18.9757 40.1211 17.9521 41.5848 18.1541C42.5581 18.2876 43.3263 18.934 43.6799 19.7781C44.9001 19.4105 45.7153 18.2128 45.5486 16.9072H45.5508Z" fill="#4AAEE4"/>
<path d="M48.4352 88.3113C55.8493 88.3113 61.8596 82.3009 61.8596 74.8868C61.8596 67.4727 55.8493 61.4624 48.4352 61.4624C41.0211 61.4624 35.0107 67.4727 35.0107 74.8868C35.0107 82.3009 41.0211 88.3113 48.4352 88.3113Z" fill="white"/>
<path fill-rule="evenodd" clip-rule="evenodd" d="M48.7481 87.8605C55.7455 87.8605 61.418 82.1879 61.418 75.1905C61.418 68.1931 55.7455 62.5206 48.7481 62.5206C41.7507 62.5206 36.0781 68.1931 36.0781 75.1905C36.0781 82.1879 41.7507 87.8605 48.7481 87.8605ZM48.7481 89.8097C56.8221 89.8097 63.3673 83.2645 63.3673 75.1905C63.3673 67.1165 56.8221 60.5713 48.7481 60.5713C40.6741 60.5713 34.1289 67.1165 34.1289 75.1905C34.1289 83.2645 40.6741 89.8097 48.7481 89.8097Z" fill="#FAF7F5"/>
<path d="M57.0275 77.8099L48.5957 82.2668C48.491 82.3206 48.3684 82.3128 48.2713 82.2464L41.4871 77.6412C41.3645 77.5568 41.3772 77.3701 41.5152 77.3062L50.136 73.307C50.233 73.2635 50.3429 73.2687 50.4348 73.3223L57.0403 77.4699C57.1705 77.5465 57.1628 77.7384 57.03 77.8073L57.0275 77.8099Z" fill="#4AAEE4"/>
<path d="M57.0275 75.9246L48.5957 80.3816C48.491 80.4353 48.3684 80.4277 48.2713 80.3611L41.4871 75.7559C41.3645 75.6716 41.3772 75.4848 41.5152 75.421L50.136 71.4217C50.233 71.3783 50.3429 71.3834 50.4348 71.4371L57.0403 75.5846C57.1705 75.6614 57.1628 75.8531 57.03 75.9221L57.0275 75.9246Z" fill="#9CD8F6"/>
<path d="M57.0274 72.2646L48.5957 76.7214C48.491 76.7752 48.3683 76.7675 48.2712 76.701L41.487 72.0957C41.3645 72.0114 41.3773 71.8247 41.5152 71.7608L50.1359 67.7616C50.233 67.7181 50.3428 67.7232 50.4348 67.7769L57.0402 71.9244C57.1705 72.0012 57.1628 72.1929 57.03 72.2619L57.0274 72.2646Z" fill="#4AAEE4"/>
<path d="M50.1368 71.4243L44.4102 74.0785L48.2722 76.6995C48.3693 76.7659 48.4919 76.7736 48.5966 76.7199L54.1624 73.7767L50.4357 71.4371C50.3438 71.3834 50.2339 71.3783 50.1368 71.4217V71.4243Z" fill="#0081CC"/>
<path d="M136.901 29.4653C135.816 29.1779 135.168 28.0518 135.456 26.9658L139.401 28.0279C139.114 29.114 137.98 29.7608 136.894 29.4734L136.901 29.4653Z" fill="#82B5F7"/>
<path d="M140.655 27.2927L134.729 25.7035C134.187 25.5598 133.859 24.9928 134.011 24.4497C134.162 23.9067 134.721 23.5793 135.265 23.731L141.19 25.3201C141.733 25.4639 142.06 26.0309 141.909 26.574C141.765 27.117 141.198 27.4444 140.655 27.2927Z" fill="#B5D3F7"/>
<path d="M142.196 9.71876C146.285 10.8127 148.712 15.0213 147.618 19.1101C146.604 22.8793 143.442 24.189 142.18 24.5324L134.817 22.5599C133.89 21.6335 131.806 18.9184 132.812 15.1491C133.907 11.0603 138.115 8.63265 142.204 9.72671L142.196 9.71876Z" fill="#FFEF00"/>
<path d="M135.878 21.1071C135.399 19.9731 135.239 19.3902 135.392 18.1524C135.535 17.0264 136.198 15.8604 137.228 15.3334C139.073 14.3911 142.435 15.1897 142.283 17.7212C142.275 18.0246 142.203 18.3201 142.075 18.5916C141.948 18.8632 141.764 19.1106 141.532 19.3024C141.309 19.502 141.037 19.6458 140.749 19.7416C140.463 19.8295 140.159 19.8613 139.855 19.8295C138.697 19.6697 137.476 18.4718 137.708 17.242C137.915 16.1799 138.913 15.4213 139.951 15.3015C140.909 15.2376 141.852 15.533 142.602 16.124C143.146 16.5073 143.569 17.0344 143.817 17.6493C144.072 18.2642 144.144 18.935 144.032 19.5898C143.761 20.9475 142.778 22.0016 141.676 22.7603C140.934 23.2713 140.175 22.1054 140.909 21.5863C142.124 20.7398 143.329 19.2065 142.283 17.7531C141.692 16.9305 140.247 16.2678 139.416 16.9705C139.232 17.1142 139.113 17.3219 139.065 17.5454C139.057 17.833 139.4 18.1284 139.616 18.2722C139.736 18.36 139.871 18.416 140.023 18.4319C140.167 18.4479 140.319 18.416 140.454 18.3521C140.59 18.2881 140.693 18.1844 140.774 18.0566C140.853 17.9287 140.886 17.7851 140.886 17.6334C140.949 16.2997 138.809 16.108 137.931 16.5233C137.188 16.8746 136.797 17.7451 136.733 18.5277C136.661 19.486 136.821 19.7975 137.188 20.6679C137.244 20.8436 137.228 21.0353 137.148 21.203C137.069 21.3707 136.916 21.4904 136.749 21.5543C136.574 21.6103 136.382 21.5943 136.222 21.5064C136.054 21.4266 135.934 21.2829 135.87 21.1071H135.878Z" fill="#22254C"/>
</svg>
