<?xml version="1.0" encoding="UTF-8"?>
<svg id="_レイヤー_1" data-name="レイヤー_1" xmlns="http://www.w3.org/2000/svg" version="1.1" viewBox="0 0 24 24">
  <!-- Generator: Adobe Illustrator 29.8.5, SVG Export Plug-In . SVG Version: 2.1.1 Build 2)  -->
  <defs>
    <style>
      .st0 {
        fill: #089008;
        fill-rule: evenodd;
      }
    </style>
  </defs>
  <path class="st0" d="M3.8,1.5c-1.2,0-2.2,1-2.2,2.2v16.5c0,1.2,1,2.2,2.2,2.2h15.8c1.2,0,2.2-1,2.2-2.2v-6.6c.5-.4.8-1,.8-1.7v-2.2c0-1.2-1-2.2-2.2-2.2h-2.5l-5.3-5.3c-.4-.4-1-.7-1.6-.7H3.8ZM10.1,7.5v-3.8H3.8v16.5h4.5v-6.6c-.5-.4-.8-1-.8-1.7v-2.2c0-1.2,1-2.2,2.2-2.2h.4ZM10.5,20.3h9v-6h-9v6ZM20.2,9.8h-10.5v2.2h10.5v-2.2ZM13.5,16.1c-.6,0-1.1.5-1.1,1.1s.5,1.1,1.1,1.1h3c.6,0,1.1-.5,1.1-1.1s-.5-1.1-1.1-1.1h-3Z"/>
</svg>