<svg width="240" height="92" viewBox="0 0 240 92" fill="none" xmlns="http://www.w3.org/2000/svg">
<g clip-path="url(#clip0_1860_26053)">
<path d="M240 0.5H0V91.5H240V0.5Z" fill="#EDF5FD"/>
<mask id="mask0_1860_26053" style="mask-type:luminance" maskUnits="userSpaceOnUse" x="149" y="4" width="31" height="31">
<path d="M156.907 4.49886L179.891 11.4062L172.984 34.3908L149.999 27.4834L156.907 4.49886Z" fill="white"/>
</mask>
<g mask="url(#mask0_1860_26053)">
<mask id="mask1_1860_26053" style="mask-type:luminance" maskUnits="userSpaceOnUse" x="151" y="4" width="30" height="31">
<path d="M157.914 4.5L180.898 11.4074L173.991 34.3919L151.007 27.4845L157.914 4.5Z" fill="white"/>
</mask>
<g mask="url(#mask1_1860_26053)">
<path d="M160.694 27.9538C159.758 27.377 159.468 26.1355 160.044 25.2031L163.448 27.309C162.871 28.2455 161.629 28.5347 160.693 27.9579L160.694 27.9538Z" fill="#82B5F7"/>
<path d="M164.82 26.9801L159.718 23.8267C159.25 23.5383 159.105 22.9177 159.393 22.4494C159.682 21.9812 160.303 21.8365 160.771 22.1249L165.873 25.2783C166.342 25.5667 166.486 26.1874 166.198 26.6557C165.909 27.1239 165.289 27.2685 164.82 26.9801Z" fill="#B5D3F7"/>
<path d="M171.212 10.9414C174.733 13.1183 175.823 17.7418 173.646 21.2628C171.636 24.5118 168.303 24.8484 167.022 24.808L160.678 20.8876C160.068 19.7601 158.88 16.6241 160.89 13.3752C163.067 9.85421 167.691 8.76451 171.212 10.9414Z" fill="#FFEF00"/>
<path d="M162.095 19.8318C161.966 18.6384 161.976 18.0375 162.472 16.9245C162.925 15.9062 163.872 15.0048 164.99 14.7993C166.979 14.4349 169.905 16.1333 169.054 18.4596C168.961 18.7403 168.812 18.9956 168.612 19.2172C168.416 19.4359 168.175 19.6139 167.906 19.7345C167.637 19.855 167.344 19.9193 167.052 19.9253C166.755 19.9301 166.464 19.8696 166.194 19.757C165.155 19.2836 164.342 17.8178 164.911 16.731C165.403 15.7917 166.556 15.3641 167.562 15.5456C168.474 15.757 169.278 16.2984 169.815 17.0593C170.217 17.5694 170.461 18.1844 170.527 18.8306C170.592 19.4767 170.473 20.1257 170.179 20.7039C169.543 21.8957 168.322 22.6073 167.077 23.0119C166.239 23.2836 165.85 21.9719 166.688 21.7001C168.068 21.2509 169.625 20.1482 169.057 18.4961C168.733 17.5621 167.567 16.5271 166.592 16.9589C166.379 17.0425 166.207 17.1968 166.098 17.3966C166.008 17.665 166.249 18.0416 166.414 18.2346C166.499 18.3541 166.614 18.4469 166.75 18.5012C166.886 18.5554 167.033 18.5727 167.175 18.5482C167.316 18.5236 167.449 18.4559 167.558 18.3591C167.664 18.2611 167.741 18.1367 167.779 17.9959C168.217 16.7626 166.259 15.9817 165.326 16.1221C164.53 16.2407 163.918 16.9518 163.641 17.6651C163.302 18.5389 163.365 18.8801 163.462 19.7951C163.466 19.9753 163.395 20.151 163.271 20.2794C163.146 20.412 162.976 20.4862 162.795 20.4943C162.616 20.4942 162.439 20.4276 162.311 20.304C162.178 20.1791 162.104 20.0092 162.095 19.8318Z" fill="#22254C"/>
</g>
</g>
<mask id="mask2_1860_26053" style="mask-type:luminance" maskUnits="userSpaceOnUse" x="0" y="57" width="43" height="26">
<path d="M0.00127411 57H42.9219V82.3H0.00127411V57Z" fill="white"/>
</mask>
<g mask="url(#mask2_1860_26053)">
<path d="M22.5499 63.1306L1.18701 79.2764L24.3863 74.4888L24.4102 64.0568C24.4102 63.0988 23.3151 62.5543 22.5499 63.1306Z" fill="#14B165"/>
<path d="M28.6275 75.5639L27.4589 81.7767C27.3993 82.0907 27.1191 82.3113 26.8011 82.2974L0.590855 81.2063C0.491483 81.2023 0.207282 80.8803 0.306655 80.8624L28.5282 75.4666C28.5878 75.4546 28.6375 75.5063 28.6275 75.5659V75.5639Z" fill="#138C4A"/>
<path d="M24.1135 63.1563L13.5742 57.0827C13.2721 56.9098 12.8865 57.017 12.7196 57.3211L0.0834665 80.2721C-0.164962 80.7212 0.208677 81.2598 0.717458 81.1883L42.3879 75.212C42.9703 75.1285 43.1213 74.3575 42.6145 74.0594L30.4852 66.9464C30.3103 66.843 30.0957 66.8331 29.9109 66.9185L5.1216 78.366C4.66847 78.5747 4.30874 77.9447 4.71815 77.6605L24.1552 64.2077C24.5309 63.9473 24.507 63.3849 24.1115 63.1583L24.1135 63.1563Z" fill="#8EDDB0"/>
</g>
<mask id="mask3_1860_26053" style="mask-type:luminance" maskUnits="userSpaceOnUse" x="45" y="8" width="33" height="25">
<path d="M75.8744 8.9989L45 11.7871L46.8888 32.702L77.7631 29.9138L75.8744 8.9989Z" fill="white"/>
</mask>
<g mask="url(#mask3_1860_26053)">
<path d="M68.8471 29.5587L59.6756 23.2744C59.5444 23.1794 59.5548 22.9804 59.6951 22.8986L61.6916 21.7408C61.7634 21.6998 61.8515 21.7012 61.9229 21.7435L65.697 24.0852C65.727 24.1045 65.7528 24.1289 65.7713 24.1602L69.6729 29.3584C69.6508 29.7219 69.3105 29.8343 68.8487 29.5586L68.8471 29.5587Z" fill="#F06575"/>
<path d="M70.1501 21.0244L69.6709 29.3605C69.6504 29.7081 69.1939 29.8216 69.013 29.5237L65.7415 24.1161L47.1172 12.9746L70.1501 21.0244Z" fill="#FF959C"/>
<path d="M75.6914 17.7163L45.7023 11.7468C45.2446 11.6561 44.9093 12.172 45.181 12.5529L55.9981 27.7311C56.3563 28.2346 57.0268 28.4035 57.5822 28.1318L65.3497 24.3156C65.5633 24.2098 65.5755 23.9102 65.3697 23.7889L48.0311 13.5024C47.8965 13.4218 47.9958 13.2164 48.1423 13.2724L70.0476 21.7651C70.217 21.8315 70.4076 21.819 70.5696 21.7336L75.8679 18.9057C76.3972 18.6238 76.2802 17.8329 75.6912 17.7148L75.6914 17.7163Z" fill="#FFD4CC"/>
</g>
<mask id="mask4_1860_26053" style="mask-type:luminance" maskUnits="userSpaceOnUse" x="202" y="24" width="38" height="24">
<path d="M239.702 24H202V47.39H239.702V24Z" fill="white"/>
</mask>
<g mask="url(#mask4_1860_26053)">
<path d="M208.262 33.6636L211.9 46.296C211.988 46.5349 212.323 46.5406 212.418 46.3056L215.354 38.9134L237.179 25.7344L208.262 33.6636Z" fill="#005BAC"/>
<path d="M204.655 27.963L237.811 24.0318C237.811 24.0318 238.965 23.8962 239.351 24.1847C239.737 24.4733 239.733 24.888 239.674 25.1518C239.67 25.1709 239.664 25.1862 239.657 25.2034L237.528 30.092L230.604 46.0803C230.604 46.0803 230.069 47.2594 228.999 47.3798C227.928 47.5002 226.784 46.5791 226.671 46.4911C226.663 46.4854 226.657 46.4816 226.652 46.4778L215.502 39.3054C215.325 39.1907 215.328 38.9308 215.508 38.8219L234.51 27.2157C234.805 27.0361 234.587 26.5851 234.262 26.7036L210.168 35.594C209.998 35.6571 209.809 35.6342 209.656 35.5348L202.711 30.9558C202.711 30.9558 201.559 30.1837 202.188 28.8593C202.188 28.8593 202.446 28.1847 203.378 28.0949C204.389 27.9974 204.657 27.963 204.657 27.963H204.655Z" fill="#B5D3F7"/>
</g>
<path d="M29.5 63.5C29.5 63.5 40.5136 50.6345 57.9495 50.6348C72.3085 50.635 82.052 56.837 89.2315 67.1741" stroke="#14B165" stroke-width="1.5" stroke-linecap="round" stroke-dasharray="1 3"/>
<path d="M73 32C78 34.6667 88.8 44.8 92 64" stroke="#FF959C" stroke-width="1.5" stroke-linecap="round" stroke-dasharray="1 3.5"/>
<path d="M143.111 27.6311C143.043 26.7852 142.703 25.9841 142.142 25.347C141.581 24.7099 140.83 24.2709 140 24.0953L139.544 19.7111L139.198 16.3482C139.124 15.62 138.995 14.8986 138.811 14.1901C138.308 12.2403 137.386 10.424 136.108 8.86825C134.881 7.28115 133.269 6.03335 131.425 5.24295C129.582 4.45255 127.567 4.14555 125.571 4.35115C123.576 4.55675 121.666 5.26805 120.022 6.41775C118.378 7.56755 117.055 9.11765 116.177 10.9215C115.241 12.7052 114.704 14.6715 114.605 16.6834C114.572 17.4155 114.592 18.1489 114.663 18.8782C114.932 20.0213 115.107 21.1846 115.187 22.3563C115.402 25.6615 115.711 28.6001 115.884 29.6896C116.189 31.3419 116.63 32.9661 117.204 34.5453C117.731 35.9192 118.476 37.1996 119.409 38.3377C120.515 39.7465 121.929 40.8841 123.542 41.6639C123.859 41.8133 124.132 42.0415 124.336 42.3267C124.539 42.6119 124.666 42.9446 124.705 43.293L124.867 45.1158L125.475 50.773C125.541 51.3203 125.822 51.8193 126.254 52.1615C126.686 52.5037 127.236 52.6617 127.785 52.6011L133.054 52.0773C133.603 52.0254 134.109 51.7593 134.463 51.3367C134.817 50.9141 134.99 50.369 134.945 49.8196L134.185 42.4496C134.151 42.0968 134.209 41.741 134.354 41.4175C134.499 41.0941 134.726 40.8143 135.013 40.6058C136.493 39.5013 137.695 38.0664 138.523 36.4153C139.29 34.9448 139.785 33.3477 139.984 31.701C141.707 31.2087 143.321 29.6268 143.111 27.6311Z" fill="#FFD09F"/>
<path d="M135.866 3.51776C128.596 0.511163 125.626 3.96826 125.626 3.96826C125.626 3.96826 122.834 2.94686 118.534 6.38306C116.669 7.87586 113.819 12.365 112.174 17.0217C110.037 23.0926 108.944 28.9483 110.457 33.8801C112.58 40.8004 122.182 40.223 121.838 39.2283C121.494 38.2336 119.08 38.9218 117.287 34.564C114.577 27.1493 118.184 15.6353 122.794 12.6317C134.64 13.1837 138.237 30.3274 138.656 30.3274C139.075 30.3274 139.894 26.3844 140.289 24.3434C143.385 24.6486 144.924 30.3472 140.076 31.8742C139.755 34.006 138.925 36.6471 137.268 38.7006C141.731 39.0309 147.253 37.6635 149.244 29.7135C152.23 17.7812 143.325 6.62396 135.866 3.51776Z" fill="#005BAC"/>
<path d="M139.941 44.7787C142.367 45.7591 144.57 47.2181 146.42 49.0687C150.632 53.5787 153.104 60.4877 153.068 67.9625V79.405H105.961L106.218 67.9573C106.218 60.4825 108.916 53.8039 113.106 49.2992C114.864 47.3872 116.989 45.8497 119.355 44.7787C120.253 44.3808 121.184 44.0618 122.137 43.8254C123.028 43.6008 123.938 43.4553 124.855 43.3906L128.852 50.2001L134.451 43.3906C135.241 43.4452 136.025 43.5591 136.798 43.7311C137.877 43.9779 138.93 44.3288 139.941 44.7787Z" fill="#14B165"/>
<path d="M129.499 50.168H128.109V81.2143H129.499V50.168Z" fill="#005BAC"/>
<path d="M124.82 43.3848L128.822 50.1943L125.155 51.6714L123.27 43.589C123.27 43.589 123.584 43.5262 124.034 43.4738C124.485 43.4214 124.82 43.3848 124.82 43.3848Z" fill="#005BAC"/>
<path d="M134.416 43.375L128.816 50.1845L132.619 51.6616L135.993 43.5792C135.742 43.5246 135.488 43.4826 135.233 43.4535C134.772 43.4012 134.416 43.375 134.416 43.375Z" fill="#005BAC"/>
<path d="M120.505 34.0927C120.291 33.9738 120.042 33.9335 119.801 33.9794L117.218 34.9745C116.1 35.4652 115.178 36.3154 114.599 37.3895L114.557 37.4784L111.566 44.2147C111.481 44.4141 111.462 44.6332 111.507 44.8427L111.463 44.8436L111.505 50.2802L117.298 50.244L117.271 46.58C117.641 46.5442 118.008 46.4605 118.359 46.3241C119.113 46.0312 119.763 45.5206 120.228 44.8583C120.501 44.4681 120.702 44.0351 120.825 43.58L124.495 42.1776C124.646 42.1503 124.79 42.0897 124.915 42.0009C125.04 41.912 125.144 41.7965 125.22 41.663C125.295 41.5294 125.341 41.3805 125.353 41.2274C125.364 41.0742 125.342 40.92 125.288 40.7763C125.234 40.6326 125.149 40.5025 125.039 40.3954C124.929 40.2883 124.796 40.2064 124.65 40.1561C124.505 40.106 124.351 40.0883 124.198 40.1044C124.045 40.1205 123.898 40.1705 123.767 40.2499L120.811 41.3847C120.772 41.2498 120.725 41.1175 120.673 40.9872L124.296 39.8143C124.448 39.7948 124.595 39.7424 124.725 39.66C124.855 39.5775 124.965 39.4668 125.048 39.3368C125.13 39.2068 125.183 39.0598 125.202 38.9071C125.221 38.7545 125.207 38.5994 125.16 38.453C125.113 38.3065 125.033 38.1719 124.928 38.0595C124.823 37.9471 124.694 37.8596 124.551 37.8026C124.408 37.7456 124.254 37.7202 124.101 37.7294C123.947 37.7386 123.796 37.7816 123.661 37.8554L119.555 39.1757H119.508C119.452 39.1964 119.399 39.2222 119.347 39.2499C119.267 39.1898 119.186 39.1322 119.103 39.078L122.373 37.8134C122.582 37.6853 122.74 37.4881 122.818 37.2557C122.897 37.0234 122.892 36.7706 122.804 36.5419C122.715 36.3133 122.549 36.1227 122.335 36.0038C122.121 35.8849 121.871 35.8455 121.63 35.8915L118.151 37.2323C117.838 37.3517 117.55 37.5325 117.307 37.7636C117.106 37.954 116.94 38.1769 116.812 38.4208C116.655 38.4233 116.498 38.4345 116.343 38.455L116.385 38.3583C116.737 37.7155 117.289 37.2046 117.957 36.9022L120.544 35.9022C120.753 35.7741 120.911 35.576 120.989 35.3436C121.068 35.1115 121.063 34.8593 120.975 34.6307C120.886 34.402 120.719 34.2116 120.505 34.0927Z" fill="#FFD09F"/>
<path d="M110.061 72.6159V50.3644C110.061 50.1584 110.142 49.9606 110.288 49.8144C110.433 49.6682 110.63 49.5854 110.836 49.584H118.039C118.233 49.5832 118.42 49.6555 118.564 49.7864C118.708 49.9174 118.797 50.0975 118.814 50.2911L119.039 76.1673H113.623C112.678 76.1673 111.772 75.792 111.104 75.124C110.436 74.4561 110.061 73.5501 110.061 72.6054" fill="#14B165"/>
<path d="M121.589 74.7471H118.328C117.688 74.7454 117.055 74.8708 116.464 75.1162C115.873 75.3617 115.337 75.7231 114.887 76.1778L112.928 78.1368C112.791 78.2837 112.7 78.4667 112.664 78.6641C112.629 78.8614 112.65 79.0648 112.727 79.25C112.803 79.4354 112.932 79.5944 113.097 79.709C113.261 79.8235 113.455 79.8889 113.655 79.8965C113.928 79.894 114.19 79.7851 114.384 79.5928L116.343 77.6338C116.603 77.3724 116.912 77.1646 117.253 77.0235C117.565 76.894 117.899 76.8258 118.236 76.8155C118.175 76.9241 118.118 77.0353 118.066 77.1494C117.798 77.1687 117.533 77.229 117.283 77.3321C116.974 77.4598 116.693 77.6476 116.457 77.8848L113.838 80.5039C113.649 80.6993 113.544 80.9608 113.544 81.2325C113.544 81.5039 113.649 81.7647 113.838 81.96C114.03 82.1529 114.29 82.2643 114.562 82.2696C114.836 82.2683 115.1 82.1593 115.295 81.9659L117.762 79.4981C117.779 79.6033 117.802 79.7073 117.827 79.8106C117.79 79.8408 117.755 79.8733 117.721 79.9073L114.746 82.8819C114.61 83.0287 114.518 83.212 114.482 83.4092C114.447 83.6066 114.468 83.8108 114.545 83.9961C114.622 84.1814 114.75 84.3406 114.915 84.4551C115.08 84.5696 115.273 84.6351 115.474 84.6426C115.746 84.6415 116.007 84.5341 116.202 84.3438L118.867 81.6787C118.97 81.7838 119.076 81.8843 119.189 81.9776L118.285 82.8819C118.095 83.0775 117.988 83.3404 117.988 83.6133C117.988 83.8861 118.095 84.1483 118.285 84.3438C118.477 84.5316 118.734 84.6388 119.003 84.6426C119.275 84.6415 119.537 84.5341 119.731 84.3438L121.206 82.8692C121.664 82.9353 122.132 82.9265 122.59 82.835C123.382 82.6768 124.11 82.2865 124.681 81.7149C124.73 81.6657 124.776 81.614 124.822 81.5625H126.918C127.161 81.52 127.381 81.3928 127.539 81.2041C127.698 81.0154 127.785 80.7768 127.785 80.5303C127.785 80.3704 127.748 80.2141 127.679 80.0723V75.7793H127.455C127.455 75.5329 127.368 75.2942 127.21 75.1055C127.051 74.9169 126.832 74.7897 126.589 74.7471H121.927C121.881 74.7456 121.836 74.7422 121.79 74.7422C121.723 74.7422 121.656 74.7438 121.589 74.7471Z" fill="#FFD09F"/>
<path d="M153.069 74.3868V80.0439C152.99 80.929 152.581 81.7521 151.925 82.3512C151.269 82.9503 150.412 83.282 149.523 83.2811H127.439C127.234 83.2811 127.037 83.1994 126.891 83.054C126.746 82.9086 126.664 82.7115 126.664 82.5059V75.1619C126.664 74.9625 126.74 74.7707 126.878 74.6263C127.016 74.482 127.203 74.3962 127.403 74.3867L153.069 74.3868Z" fill="#14B165"/>
<path d="M124.11 31.1495C124.126 31.3071 124.189 31.4563 124.29 31.5782C124.391 31.7002 124.526 31.7895 124.677 31.8349C124.829 31.8802 124.991 31.8796 125.142 31.8331C125.294 31.7866 125.428 31.6963 125.528 31.5735C125.628 31.4508 125.69 31.3011 125.705 31.1435C125.72 30.9858 125.688 30.8272 125.613 30.6877C125.538 30.5482 125.423 30.434 125.283 30.3596C125.144 30.2852 124.985 30.2538 124.827 30.2696C124.722 30.28 124.62 30.3111 124.528 30.3611C124.435 30.411 124.352 30.4788 124.286 30.5605C124.219 30.6423 124.169 30.7364 124.139 30.8375C124.109 30.9386 124.099 31.0446 124.11 31.1495Z" fill="#F1851B"/>
<path d="M123.73 34.218C123.676 34.2225 123.623 34.2392 123.576 34.2669C123.529 34.2945 123.489 34.3324 123.459 34.3778C123.429 34.4231 123.409 34.4747 123.402 34.5287C123.394 34.5827 123.399 34.6376 123.416 34.6895C123.537 35.1456 123.811 35.5462 124.193 35.8238C124.574 36.1014 125.04 36.2391 125.511 36.2138C125.765 36.2124 126.017 36.1607 126.251 36.0615C126.485 35.9623 126.697 35.8176 126.875 35.6359C127.053 35.4542 127.193 35.239 127.287 35.0028C127.381 34.7667 127.427 34.5142 127.423 34.26C127.427 34.207 127.418 34.154 127.399 34.1046C127.38 34.0552 127.35 34.0107 127.311 33.9742C127.273 33.9377 127.227 33.9101 127.176 33.8934C127.126 33.8767 127.072 33.8713 127.02 33.8776L123.73 34.218Z" fill="#F1851B"/>
<path d="M127.391 24.1393C127.623 23.8897 127.904 23.6909 128.217 23.5557C128.53 23.4204 128.868 23.3516 129.209 23.3536C129.911 23.366 130.588 23.6194 131.126 24.0713C131.185 24.1185 131.223 24.1872 131.231 24.2624C131.239 24.3375 131.217 24.4129 131.17 24.472C131.123 24.531 131.054 24.5689 130.979 24.5772C130.904 24.5856 130.829 24.5637 130.769 24.5165C129.937 23.8303 128.627 23.6417 127.831 24.5165C127.585 24.7836 127.14 24.4274 127.391 24.1603" fill="#333333"/>
<path d="M130.058 31.2171C130.469 31.1721 130.845 30.9672 131.106 30.6466C131.367 30.326 131.491 29.9156 131.451 29.5042L131.247 27.498C131.164 27.1211 130.945 26.7878 130.633 26.5617C130.32 26.3355 129.935 26.2324 129.551 26.2719C129.167 26.3114 128.811 26.4907 128.551 26.7758C128.291 27.0608 128.145 27.4317 128.141 27.8175L128.35 29.8237C128.395 30.2336 128.599 30.6093 128.919 30.87C129.238 31.1306 129.647 31.2553 130.058 31.2171Z" fill="white"/>
<path d="M129.503 30.9445C129.771 30.9115 130.017 30.7759 130.188 30.5659C130.359 30.356 130.442 30.088 130.419 29.8183L130.283 28.4878C130.296 28.3343 130.274 28.1801 130.22 28.0359C130.166 27.8917 130.081 27.7612 129.971 27.6536C129.861 27.5461 129.728 27.4641 129.583 27.4136C129.438 27.363 129.283 27.3451 129.13 27.3612C128.977 27.3772 128.829 27.4268 128.697 27.5064C128.565 27.5861 128.453 27.6937 128.367 27.8218C128.282 27.9499 128.226 28.0952 128.203 28.2474C128.18 28.3996 128.191 28.555 128.235 28.7025L128.371 30.0278C128.404 30.2975 128.541 30.5438 128.752 30.7148C128.963 30.8859 129.232 30.9682 129.503 30.9445Z" fill="#005BAC"/>
<path d="M120.776 25.2239C119.823 24.5482 118.581 24.9986 117.905 25.8367C117.858 25.8951 117.79 25.9323 117.715 25.9401C117.64 25.948 117.566 25.9259 117.507 25.8786C117.449 25.8314 117.412 25.7629 117.404 25.6883C117.396 25.6136 117.418 25.5389 117.465 25.4805C117.898 24.9261 118.508 24.5376 119.194 24.3805C119.528 24.3108 119.873 24.3106 120.208 24.38C120.542 24.4494 120.858 24.5869 121.137 24.7839C121.436 24.9934 121.074 25.4334 120.776 25.2239Z" fill="#333333"/>
<path d="M120.451 32.2063C120.039 32.246 119.629 32.122 119.308 31.8612C118.988 31.6004 118.783 31.2238 118.738 30.813L118.534 28.8068C118.483 28.5895 118.479 28.3638 118.522 28.1447C118.565 27.9257 118.654 27.7184 118.784 27.5366C118.913 27.3548 119.08 27.2027 119.273 27.0903C119.466 26.978 119.681 26.9081 119.903 26.8852C120.125 26.8623 120.349 26.887 120.561 26.9576C120.773 27.0283 120.967 27.1432 121.131 27.2948C121.295 27.4464 121.424 27.6311 121.511 27.8367C121.598 28.0424 121.64 28.2641 121.635 28.4873L121.844 30.4935C121.884 30.9048 121.76 31.3153 121.499 31.6359C121.238 31.9564 120.862 32.1614 120.451 32.2063Z" fill="white"/>
<path d="M119.916 31.9343C119.645 31.958 119.375 31.8749 119.164 31.7028C118.952 31.5307 118.816 31.2831 118.785 31.0124L118.649 29.6872C118.607 29.5401 118.598 29.3857 118.623 29.2348C118.648 29.084 118.705 28.9404 118.791 28.814C118.877 28.6876 118.989 28.5816 119.121 28.5033C119.252 28.425 119.399 28.3764 119.551 28.3609C119.703 28.3454 119.856 28.3633 120.001 28.4135C120.145 28.4636 120.277 28.5447 120.386 28.6512C120.496 28.7576 120.581 28.8867 120.636 29.0295C120.69 29.1722 120.713 29.3252 120.702 29.4777L120.838 30.8029C120.862 31.0744 120.779 31.3443 120.607 31.5556C120.434 31.7668 120.187 31.9027 119.916 31.9343Z" fill="#005BAC"/>
<path d="M80.1188 89.1243H110.694C110.846 89.1216 110.996 89.0857 111.133 89.0191C111.27 88.9524 111.391 88.8566 111.487 88.7384C111.584 88.6202 111.653 88.4824 111.69 88.3347C111.728 88.1869 111.733 88.0327 111.705 87.8829L107.514 68.1615C107.461 67.9332 107.334 67.7291 107.151 67.582C106.969 67.4348 106.743 67.353 106.508 67.3496H75.9336C75.7812 67.3523 75.6312 67.3882 75.4941 67.4549C75.357 67.5215 75.2361 67.6173 75.1398 67.7355C75.0435 67.8537 74.9742 67.9915 74.9367 68.1393C74.8992 68.2871 74.8944 68.4412 74.9226 68.591L79.1131 88.3072C79.1648 88.5365 79.2921 88.7417 79.4745 88.8899C79.6569 89.0381 79.8838 89.1207 80.1188 89.1243Z" fill="#B5D3F7"/>
<path d="M111.339 88.8991C111.497 88.7877 111.617 88.6305 111.682 88.4487C111.748 88.267 111.756 88.0695 111.706 87.8829L107.515 68.1615C107.463 67.9332 107.335 67.7291 107.152 67.582C106.97 67.4348 106.744 67.353 106.509 67.3496L111.339 88.8991Z" fill="#82B5F7"/>
<path d="M79.9209 91.309H119.264C119.453 91.309 119.634 91.234 119.768 91.101C119.902 90.967 119.977 90.786 119.977 90.597V89.837C119.977 89.648 119.902 89.4673 119.768 89.3337C119.634 89.2001 119.453 89.125 119.264 89.125H79.9104C79.7214 89.125 79.5402 89.2001 79.4066 89.3337C79.2731 89.4673 79.198 89.648 79.198 89.837V90.597C79.198 90.786 79.2731 90.967 79.4066 91.101C79.5402 91.234 79.7214 91.309 79.9104 91.309" fill="#B5D3F7"/>
<path d="M97.5 64.4999C101 59.5 126 51.5 153.5 64C181 76.5 204 53.5 209 48.5" stroke="#82B5F7" stroke-width="1.5" stroke-linecap="round" stroke-dasharray="1 3.5"/>
</g>
<defs>
<clipPath id="clip0_1860_26053">
<rect width="240" height="91" fill="white" transform="translate(0 0.5)"/>
</clipPath>
</defs>
</svg>
