<svg width="24" height="24" viewBox="0 0 24 24" fill="none" xmlns="http://www.w3.org/2000/svg">
<path fill-rule="evenodd" clip-rule="evenodd" d="M3.75 1.5C2.50736 1.5 1.5 2.50736 1.5 3.75V20.25C1.5 21.4926 2.50736 22.5 3.75 22.5H8.25H15.75H19.5C20.7426 22.5 21.75 21.4926 21.75 20.25V13.6771C22.2103 13.2651 22.5 12.6664 22.5 12V9.75C22.5 8.50736 21.4926 7.5 20.25 7.5H17.7201L12.4558 2.16905C12.0331 1.74095 11.4565 1.5 10.8549 1.5H3.75ZM10.125 7.5V3.75H3.75V20.25H8.25V13.6771C7.78969 13.2651 7.5 12.6664 7.5 12V9.75C7.5 8.50736 8.50736 7.5 9.75 7.5H10.125ZM10.5 20.25H15.75H19.5V14.25H10.5V20.25ZM20.25 9.75H9.75V12H20.25V9.75ZM13.5 16.125C12.8787 16.125 12.375 16.6287 12.375 17.25C12.375 17.8713 12.8787 18.375 13.5 18.375H16.5C17.1213 18.375 17.625 17.8713 17.625 17.25C17.625 16.6287 17.1213 16.125 16.5 16.125H13.5Z" fill="#089008"/>
</svg>
