<svg width="24" height="24" viewBox="0 0 24 24" fill="none" xmlns="http://www.w3.org/2000/svg">
<path fill-rule="evenodd" clip-rule="evenodd" d="M3.75 1.5C2.50736 1.5 1.5 2.50736 1.5 3.75V20.25C1.5 21.4926 2.50736 22.5 3.75 22.5H8.25H15.75H20.25C21.4926 22.5 22.5 21.4926 22.5 20.25V8.25C22.5 7.00736 21.4926 6 20.25 6H16.2389L12.4558 2.16905C12.0331 1.74095 11.4565 1.5 10.8549 1.5H3.75ZM10.125 6V3.75H3.75V20.25H6V8.25C6 7.00736 7.00736 6 8.25 6H10.125ZM8.25 20.25H15.75H20.25V8.25H8.25V20.25ZM11.5 9.375C11.9142 9.375 12.25 9.71079 12.25 10.125V11.0625H13.2188C13.633 11.0625 13.9688 11.3983 13.9688 11.8125C13.9688 12.2267 13.633 12.5625 13.2188 12.5625H12.25V13.5625C12.25 13.9767 11.9142 14.3125 11.5 14.3125C11.0858 14.3125 10.75 13.9767 10.75 13.5625V12.5625H9.78131C9.3671 12.5625 9.03131 12.2267 9.03131 11.8125C9.03131 11.3983 9.3671 11.0625 9.78131 11.0625H10.75V10.125C10.75 9.71079 11.0858 9.375 11.5 9.375ZM18.9054 10.999C19.1983 10.7061 19.1983 10.2313 18.9054 9.93836C18.6125 9.64547 18.1376 9.64547 17.8447 9.93836L17 10.783L16.1554 9.93836C15.8625 9.64547 15.3876 9.64547 15.0947 9.93836C14.8018 10.2313 14.8018 10.7061 15.0947 10.999L15.9394 11.8437L15.0947 12.6884C14.8018 12.9813 14.8018 13.4561 15.0947 13.749C15.3876 14.0419 15.8625 14.0419 16.1554 13.749L17 12.9043L17.8447 13.749C18.1376 14.0419 18.6125 14.0419 18.9054 13.749C19.1983 13.4561 19.1983 12.9813 18.9054 12.6884L18.0607 11.8437L18.9054 10.999ZM10.125 16.2501C9.71079 16.2501 9.375 16.5858 9.375 17.0001C9.375 17.4143 9.71079 17.7501 10.125 17.7501H12.875C13.2892 17.7501 13.625 17.4143 13.625 17.0001C13.625 16.5858 13.2892 16.2501 12.875 16.2501H10.125ZM18.375 15.2188C18.7892 15.2188 19.125 15.5546 19.125 15.9688C19.125 16.383 18.7892 16.7188 18.375 16.7188H15.625C15.2108 16.7188 14.875 16.383 14.875 15.9688C14.875 15.5546 15.2108 15.2188 15.625 15.2188H18.375ZM19.125 18.0313C19.125 17.6171 18.7892 17.2813 18.375 17.2813H15.625C15.2108 17.2813 14.875 17.6171 14.875 18.0313C14.875 18.4455 15.2108 18.7813 15.625 18.7813H18.375C18.7892 18.7813 19.125 18.4455 19.125 18.0313Z" fill="#65707D"/>
</svg>
