<?xml version="1.0" encoding="UTF-8"?>
<svg id="_レイヤー_1" data-name="レイヤー_1" xmlns="http://www.w3.org/2000/svg" version="1.1" viewBox="0 0 24 24">
  <!-- Generator: Adobe Illustrator 29.8.5, SVG Export Plug-In . SVG Version: 2.1.1 Build 2)  -->
  <defs>
    <style>
      .st0 {
        fill: #c81670;
        fill-rule: evenodd;
      }
    </style>
  </defs>
  <path class="st0" d="M3.8,1.5c-1.2,0-2.2,1-2.2,2.2v16.5c0,1.2,1,2.2,2.2,2.2h16.5c1.2,0,2.2-1,2.2-2.2v-12c0-1.2-1-2.2-2.2-2.2h-4l-3.8-3.8c-.4-.4-1-.7-1.6-.7H3.8ZM10.1,6v-2.2H3.8v16.5h2.2v-12c0-1.2,1-2.2,2.2-2.2h1.9ZM8.2,20.3h12v-12h-12v12ZM11.5,9.4c.4,0,.8.3.8.8v.9h1c.4,0,.8.3.8.8s-.3.8-.8.8h-1v1c0,.4-.3.8-.8.8s-.8-.3-.8-.8v-1h-1c-.4,0-.8-.3-.8-.8s.3-.8.8-.8h1v-.9c0-.4.3-.8.8-.8ZM18.9,11c.3-.3.3-.8,0-1.1-.3-.3-.8-.3-1.1,0l-.8.8-.8-.8c-.3-.3-.8-.3-1.1,0-.3.3-.3.8,0,1.1l.8.8-.8.8c-.3.3-.3.8,0,1.1.3.3.8.3,1.1,0l.8-.8.8.8c.3.3.8.3,1.1,0,.3-.3.3-.8,0-1.1l-.8-.8.8-.8ZM10.1,16.3c-.4,0-.8.3-.8.8s.3.8.8.8h2.8c.4,0,.8-.3.8-.8s-.3-.8-.8-.8h-2.8ZM18.4,15.2c.4,0,.8.3.8.8s-.3.8-.8.8h-2.8c-.4,0-.8-.3-.8-.8s.3-.8.8-.8h2.8ZM19.1,18c0-.4-.3-.8-.8-.8h-2.8c-.4,0-.8.3-.8.8s.3.8.8.8h2.8c.4,0,.8-.3.8-.8Z"/>
</svg>