<svg width="20" height="20" viewBox="0 0 20 20" fill="none" xmlns="http://www.w3.org/2000/svg">
<path d="M10 18.75C9.5 18.75 9.0625 18.5625 8.6875 18.1875L1.8125 11.3125C1.4375 11 1.25 10.5 1.25 10C1.25 9.5 1.4375 9 1.8125 8.6875L8.6875 1.8125C9.4375 1.0625 10.625 1.0625 11.3125 1.8125L18.1875 8.6875C18.5625 9.0625 18.75 9.5 18.75 10C18.75 10.5 18.5625 11 18.1875 11.3125L11.3125 18.1875C11 18.5625 10.5 18.75 10 18.75ZM10 3.125L3.125 10L10 16.875L16.875 10L10 3.125ZM10 5.625C10.5 5.625 10.9375 6.0625 10.9375 6.5625V10C10.9375 10.5 10.5 10.9375 10 10.9375C9.5 10.9375 9.0625 10.5 9.0625 10V6.5625C9.0625 6.0625 9.5 5.625 10 5.625ZM11.125 13.3125C11.125 13.9375 10.625 14.4375 10 14.4375C9.375 14.4375 8.875 13.9375 8.875 13.3125C8.875 12.6875 9.375 12.1875 10 12.1875C10.625 12.1875 11.125 12.6875 11.125 13.3125Z" fill="#CF0F39"/>
</svg>
