<svg width="20" height="20" viewBox="0 0 20 20" fill="none" xmlns="http://www.w3.org/2000/svg">
<path d="M19.125 15.3125L11.625 2.1875C11.3125 1.625 10.6875 1.25 10 1.25C9.3125 1.25 8.75 1.625 8.375 2.1875L0.875 15.3125C0.5625 15.875 0.5625 16.625 0.875 17.1875C1.1875 17.75 1.875 18.125 2.5 18.125H17.5C18.1875 18.125 18.8125 17.75 19.125 17.1875C19.4375 16.625 19.5 15.9375 19.125 15.3125ZM9.0625 7.1875C9.0625 6.6875 9.5 6.25 10 6.25C10.5 6.25 10.9375 6.6875 10.9375 7.1875V10.625C10.9375 11.125 10.5 11.5625 10 11.5625C9.5 11.5625 9.0625 11.125 9.0625 10.625V7.1875ZM10 15C9.375 15 8.875 14.5 8.875 13.875C8.875 13.25 9.375 12.75 10 12.75C10.625 12.75 11.125 13.25 11.125 13.875C11.125 14.5 10.625 15 10 15Z" fill="#C36608"/>
</svg>
