<svg width="20" height="20" viewBox="0 0 20 20" fill="none" xmlns="http://www.w3.org/2000/svg">
<path fill-rule="evenodd" clip-rule="evenodd" d="M10.4991 1.3939C10.2494 1.23687 9.94036 1.2065 9.66488 1.31195C9.3894 1.41739 9.1796 1.64633 9.09857 1.92995C8.55216 3.84241 6.87553 5.54865 5.58709 6.83709C4.19505 8.22912 3.125 10.3323 3.125 12.5C3.125 14.7458 4.29305 16.336 5.70624 17.3294C7.08963 18.302 8.76301 18.75 10 18.75C11.237 18.75 12.9104 18.302 14.2938 17.3294C15.7069 16.336 16.875 14.7458 16.875 12.5C16.875 10.4921 16.3313 7.9617 15.1745 6.07286C14.9892 5.77043 14.6492 5.59841 14.2959 5.62835C13.9426 5.65828 13.6365 5.88491 13.5047 6.21402C13.5047 6.21402 13.2549 6.74481 13.1355 6.9495C12.8793 7.38873 12.5768 7.78039 12.2925 7.96996C12.0846 8.10854 11.8503 8.23244 11.6157 8.33988C11.6323 7.71885 11.6433 6.94899 11.6304 6.16148C11.6155 5.25059 11.5683 4.28635 11.4536 3.49425C11.3966 3.10104 11.3182 2.7144 11.2037 2.38516C11.1066 2.10586 10.9153 1.65562 10.4991 1.3939ZM10 16.875C8.125 16.875 7.5 15.9375 7.5 15C7.5 13.2826 8.46312 12.143 9.33074 11.5813C9.65807 11.3694 10.0529 11.6051 10.1417 11.9848C10.2902 12.6202 10.5555 13.4375 10.9375 13.4375C10.9375 13.4375 12.5197 13.4375 12.5197 15C12.5197 15.9375 11.875 16.875 10 16.875Z" fill="#CF0F39"/>
</svg>
