<svg width="24" height="24" viewBox="0 0 24 24" fill="none" xmlns="http://www.w3.org/2000/svg">
<path d="M11.4993 1.5C10.3194 1.5 9.28449 2.28726 8.96957 3.42438L8.83858 3.89735C8.81028 3.99954 8.71064 4.14144 8.49474 4.23881C7.986 4.46825 7.50089 4.74697 7.04637 5.07096C6.85556 5.20698 6.68475 5.22224 6.58288 5.1962L6.12762 5.07981C4.99839 4.79112 3.81404 5.28161 3.21956 6.28415L2.69396 7.17052C2.08836 8.1918 2.2437 9.49243 3.07279 10.3424L3.37329 10.6504C3.447 10.726 3.51682 10.8785 3.49472 11.1021C3.4357 11.6992 3.4357 12.3008 3.49472 12.8979C3.51682 13.1215 3.447 13.274 3.37329 13.3496L3.06423 13.6664C2.24218 14.5091 2.08173 15.7961 2.6717 16.8149L3.18057 17.6936C3.76774 18.7075 4.95577 19.2095 6.0921 18.9239L6.5852 18.7999C6.68635 18.7745 6.85542 18.7899 7.04481 18.924C7.51107 19.2543 8.0092 19.537 8.53171 19.7678C8.7506 19.8646 8.85172 20.0077 8.88027 20.1108L9.00899 20.5756C9.32392 21.7127 10.3588 22.5 11.5388 22.5H12.5469C13.7281 22.5 14.7638 21.711 15.0776 20.5722L15.1426 20.3361C15.3076 19.7371 14.9558 19.1177 14.3568 18.9527C13.7578 18.7877 13.1385 19.1395 12.9734 19.7385L12.9084 19.9746C12.8636 20.1373 12.7156 20.25 12.5469 20.25H11.5388C11.3702 20.25 11.2224 20.1375 11.1774 19.9751L11.0486 19.5103C10.8063 18.6351 10.1507 18.0234 9.4411 17.7098C9.05607 17.5397 8.68897 17.3313 8.34532 17.0879C7.72836 16.6509 6.89386 16.4023 6.03668 16.6178L5.54358 16.7418C5.38124 16.7826 5.21152 16.7108 5.12764 16.566L4.61878 15.6873C4.5345 15.5418 4.55742 15.3579 4.67485 15.2375L4.98391 14.9207C5.60135 14.2877 5.80907 13.438 5.73381 12.6766C5.68934 12.2266 5.68934 11.7734 5.73381 11.3234C5.80907 10.562 5.60135 9.71227 4.98391 9.0793L4.68341 8.77125C4.56497 8.64983 4.54277 8.46403 4.62929 8.31813L5.15489 7.43175C5.23982 7.28853 5.40901 7.21846 5.57033 7.2597L6.02558 7.37609C6.88935 7.59692 7.7316 7.34564 8.35238 6.90313C8.68738 6.66434 9.04489 6.45894 9.41977 6.28987C10.1208 5.97373 10.7668 5.36502 11.007 4.49788L11.1379 4.02491C11.1829 3.86247 11.3308 3.75 11.4993 3.75H12.5027C12.672 3.75 12.8203 3.86344 12.8646 4.02685L12.9715 4.42112C13.2102 5.30115 13.8657 5.91303 14.5655 6.23198C14.9397 6.40258 15.2948 6.61274 15.6245 6.85889C16.2503 7.32603 17.1182 7.60699 18.0157 7.37761L18.4786 7.25933C18.6397 7.21814 18.8088 7.28806 18.8938 7.43107L19.3959 8.27592C19.4828 8.42223 19.4603 8.60875 19.3411 8.73021L18.9993 9.07843C18.3808 9.7084 18.1697 10.5552 18.2372 11.3135C18.2769 11.7584 18.2773 12.2266 18.2385 12.6721C18.1713 13.4444 18.3936 14.3066 19.0345 14.9373L19.3554 15.2531C19.4773 15.3731 19.5025 15.5603 19.4168 15.7083L18.9231 16.561C18.8389 16.7064 18.6681 16.778 18.5053 16.7363L18.2151 16.6618C17.6133 16.5073 17.0002 16.87 16.8458 17.4718C16.6913 18.0736 17.054 18.6867 17.6558 18.8411L17.946 18.9156C19.0856 19.2081 20.2806 18.7066 20.8702 17.6885L21.3639 16.8359C21.9639 15.7999 21.7869 14.4892 20.9336 13.6495L20.6127 13.3336C20.5349 13.2571 20.4598 13.0995 20.48 12.8673C20.5302 12.2906 20.5297 11.6903 20.4784 11.114C20.4581 10.8863 20.5298 10.7311 20.6049 10.6546L20.9467 10.3064C21.7813 9.45623 21.9387 8.15059 21.3301 7.12643L20.828 6.28158C20.2331 5.2805 19.0497 4.79105 17.9214 5.07939L17.4586 5.19767C17.3543 5.22433 17.1734 5.20734 16.9705 5.05588C16.5123 4.71383 16.0189 4.42173 15.4986 4.18461C15.2722 4.08141 15.1709 3.93457 15.1431 3.83219L15.0362 3.43792C14.726 2.29411 13.6878 1.5 12.5027 1.5H11.4993Z" fill="#65707D"/>
<path fill-rule="evenodd" clip-rule="evenodd" d="M12 8.25C9.92894 8.25 8.25001 9.92893 8.25001 12C8.25001 14.0711 9.92894 15.75 12 15.75C14.0711 15.75 15.75 14.0711 15.75 12C15.75 9.92893 14.0711 8.25 12 8.25ZM10.5 12C10.5 11.1716 11.1716 10.5 12 10.5C12.8284 10.5 13.5 11.1716 13.5 12C13.5 12.8284 12.8284 13.5 12 13.5C11.1716 13.5 10.5 12.8284 10.5 12Z" fill="#65707D"/>
</svg>
