<?xml version="1.0" encoding="UTF-8"?>
<svg id="_レイヤー_1" data-name="レイヤー_1" xmlns="http://www.w3.org/2000/svg" version="1.1" viewBox="0 0 24 24">
  <!-- Generator: Adobe Illustrator 29.8.5, SVG Export Plug-In . SVG Version: 2.1.1 Build 2)  -->
  <defs>
    <style>
      .st0 {
        fill: #65707d;
      }
    </style>
  </defs>
  <path class="st0" d="M10.7,2c.7-.6,1.8-.6,2.5,0l8.9,8.1c.5.4.5,1.1,0,1.6-.4.5-1.1.5-1.6,0L12,3.9l-6,5.5v10.5c0,.2.2.4.4.4h2.2c.2,0,.4-.2.4-.4v-2.2c0-1.4,1.2-2.6,2.6-2.6h.8c1.4,0,2.6,1.2,2.6,2.6v2.2c0,.2.2.4.4.4h2.3c.2,0,.4-.2.4-.4v-4.5c0-.6.5-1.1,1.1-1.1.6,0,1.1.5,1.1,1.1v4.5c0,1.4-1.2,2.6-2.6,2.6h-2.3c-1.4,0-2.6-1.2-2.6-2.6v-2.2c0-.2-.2-.4-.4-.4h-.8c-.2,0-.4.2-.4.4v2.2c0,1.4-1.2,2.6-2.6,2.6h-2.2c-1.4,0-2.6-1.2-2.6-2.6v-8.5l-.4.3c-.5.4-1.2.4-1.6,0-.4-.5-.4-1.2,0-1.6L10.7,2Z"/>
</svg>