<svg width="24" height="24" viewBox="0 0 24 24" fill="none" xmlns="http://www.w3.org/2000/svg">
<path d="M10.7393 1.98038C11.4544 1.33076 12.5458 1.33076 13.2608 1.98038L22.1319 10.0419C22.5915 10.4596 22.6255 11.171 22.2081 11.6308C21.7902 12.0906 21.0781 12.1248 20.6183 11.7069L12.0001 3.87491L6.00009 9.32706V19.8749C6.00025 20.0819 6.16809 20.2499 6.37509 20.2499H8.62509C8.8321 20.2499 8.99994 20.0819 9.00009 19.8749V17.6249C9.00009 16.1752 10.1753 14.9999 11.6251 14.9999H12.3751C13.8248 14.9999 15.0001 16.1752 15.0001 17.6249V19.8749C15.0002 20.0819 15.1681 20.2499 15.3751 20.2499H17.6612C17.8682 20.2499 18.0361 20.0819 18.0362 19.8749V15.3749C18.0362 14.7536 18.54 14.25 19.1612 14.2499C19.7825 14.2499 20.2862 14.7536 20.2862 15.3749V19.8749C20.2861 21.3245 19.1109 22.4999 17.6612 22.4999H15.3751C13.9254 22.4999 12.7502 21.3245 12.7501 19.8749V17.6249C12.7501 17.4178 12.5822 17.2499 12.3751 17.2499H11.6251C11.418 17.2499 11.2501 17.4178 11.2501 17.6249V19.8749C11.2499 21.3245 10.0747 22.4999 8.62509 22.4999H6.37509C4.92545 22.4999 3.75025 21.3245 3.75009 19.8749V11.372L3.38193 11.7069C2.92212 12.1248 2.20996 12.0906 1.79208 11.6308C1.37469 11.171 1.40865 10.4596 1.86826 10.0419L10.7393 1.98038Z" fill="#1064D1"/>
</svg>
