<svg width="24" height="24" viewBox="0 0 24 24" fill="none" xmlns="http://www.w3.org/2000/svg">
<path d="M15.3986 8.35046L14.815 9.6716H9.5511C8.98129 9.6716 8.46433 10.0093 8.23457 10.5309L4.66406 18.6599C4.9168 18.869 5.23158 18.9999 5.57622 18.9999H18.6267H5.57392H18.6244L22.4224 10.3632C22.8382 9.41426 22.1444 8.35046 21.1081 8.35046H15.3986Z" fill="#0081CC"/>
<path d="M15.2167 7.63131L18.624 18.9999H5.57355C4.944 18.9999 4.38568 18.5887 4.19957 17.9867L1.06561 7.86337C0.77841 6.93743 1.46999 6 2.43959 6H12.9213C13.9553 6 14.8766 6.65482 15.2167 7.63131Z" fill="#9CD8F6"/>
<path d="M15.3985 8.35032L14.815 9.67145H9.5511C8.98129 9.67145 8.46433 10.0092 8.23457 10.5308L4.66406 18.6597C4.85247 18.816 5.07763 18.9286 5.32348 18.9745C5.40619 18.9906 5.48891 18.9975 5.57622 18.9975H18.6267L15.4353 8.34802H15.4008L15.3985 8.35032Z" fill="#4AAEE4"/>
</svg>
