<svg width="24" height="24" viewBox="0 0 24 24" fill="none" xmlns="http://www.w3.org/2000/svg">
<path fill-rule="evenodd" clip-rule="evenodd" d="M12.755 6.11354C12.3424 6.19204 11.9218 6.23732 11.4921 6.23732C9.53079 6.23732 7.67716 5.37894 6.40619 3.88154C5.51258 2.82894 3.93468 2.70114 2.88208 3.59374C1.82947 4.48734 1.70067 6.06524 2.59427 7.11784C4.3996 9.24519 6.87915 10.6349 9.58613 11.0817C10.207 9.16871 11.3049 7.461 12.755 6.11354Z" fill="#0081CC"/>
<path fill-rule="evenodd" clip-rule="evenodd" d="M14.0082 14.6672C14.0082 13.3539 14.3986 12.1242 15.0668 11.0827H15.0628V11.0817C12.6728 11.8062 9.59449 11.0837 9.58544 11.0817C9.21713 12.2168 9.00781 13.4193 9.00781 14.6672C9.00781 16.6083 9.49487 18.5324 10.4167 20.2301C10.8695 21.0653 11.7289 21.5383 12.6165 21.5383C13.02 21.5383 13.4275 21.4407 13.8069 21.2344C15.0205 20.5752 15.4704 19.0577 14.8112 17.8441C14.2859 16.876 14.0082 15.7771 14.0082 14.6662V14.6672Z" fill="#9CD8F6"/>
<path d="M17.5621 11.4259L15.0645 11.0817L15.4086 8.58406C15.5988 7.20441 16.8708 6.24036 18.2494 6.43055C19.6291 6.62074 20.5931 7.89272 20.4029 9.27137C20.2128 10.651 18.9408 11.6151 17.5621 11.4249V11.4259Z" fill="#0081CC"/>
<path fill-rule="evenodd" clip-rule="evenodd" d="M21.9818 5.25701C21.8067 3.88742 20.5528 2.91834 19.1842 3.09344C16.7016 3.41144 14.4837 4.50832 12.7539 6.11339C11.3028 7.45983 10.2059 9.16855 9.58398 11.0816C9.58398 11.0816 12.6693 11.8081 15.0624 11.0816L15.4055 8.58489C15.5957 7.20524 16.8677 6.24119 18.2463 6.43138C19.1631 6.55717 19.8866 7.16599 20.2197 7.96098C21.3689 7.61481 22.1367 6.48673 21.9797 5.25701H21.9818Z" fill="#4AAEE4"/>
</svg>
