<?xml version="1.0" encoding="UTF-8"?>
<svg id="_レイヤー_1" xmlns="http://www.w3.org/2000/svg" version="1.1" viewBox="0 0 24 24">
  <!-- Generator: Adobe Illustrator 29.8.5, SVG Export Plug-In . SVG Version: 2.1.1 Build 2)  -->
  <defs>
    <style>
      .st0 {
        fill: #1064d1;
        fill-rule: evenodd;
      }
    </style>
  </defs>
  <path class="st0" d="M1.5,3.8c0-1.2,1-2.2,2.2-2.2h7.1c.6,0,1.2.2,1.6.7l6.4,6.4c2.2,1.3,3.6,3.7,3.6,6.4s-2.7,6.8-6.3,7.4H3.8c-1.2,0-2.2-1-2.2-2.2V3.8h0ZM9.6,20.3H3.8V3.8h6.4v5.6c-1.6,1.4-2.6,3.4-2.6,5.7s.8,3.9,2.1,5.2h0ZM15,20.3c2.9,0,5.2-2.4,5.2-5.2s-2.4-5.2-5.2-5.2-5.2,2.4-5.2,5.2,2.4,5.2,5.2,5.2ZM14.1,11.8c-.2-.3-.7-.4-1-.2s-.4.7-.2,1l1,1.5h-.5c-.4,0-.8.3-.8.8s.3.8.8.8h.9v.4h-.9c-.4,0-.8.3-.8.7s.3.8.8.8h.9v.9c0,.4.3.8.8.8s.8-.3.8-.8v-.9h.9c.4,0,.8-.3.8-.8s-.3-.7-.8-.7h-.9v-.4h.9c.4,0,.8-.3.8-.8s-.3-.8-.8-.8h-.5l1-1.5c.2-.3.1-.8-.2-1-.3-.2-.8-.1-1,.2l-.9,1.4-.9-1.4h-.2Z"/>
</svg>