<svg width="24" height="24" viewBox="0 0 24 24" fill="none" xmlns="http://www.w3.org/2000/svg">
<path fill-rule="evenodd" clip-rule="evenodd" d="M1.5 3.75C1.5 2.50736 2.50736 1.5 3.75 1.5H10.859C11.4557 1.5 12.028 1.73705 12.45 2.15901L18.8581 8.56712C21.0401 9.87859 22.5 12.2688 22.5 15C22.5 18.7314 19.7751 21.8263 16.2067 22.4034C16.0671 22.4655 15.9126 22.5 15.75 22.5H15H3.75C2.50736 22.5 1.5 21.4926 1.5 20.25V3.75ZM9.64393 20.25H3.75V3.75H10.125V9.30031C8.51825 10.6759 7.5 12.719 7.5 15C7.5 17.0441 8.31774 18.8972 9.64393 20.25ZM15 20.25C17.8995 20.25 20.25 17.8995 20.25 15C20.25 12.1005 17.8995 9.75 15 9.75C12.1005 9.75 9.75 12.1005 9.75 15C9.75 17.8995 12.1005 20.25 15 20.25ZM14.0778 11.7668C13.8454 11.4239 13.3791 11.3344 13.0362 11.5668C12.6933 11.7992 12.6038 12.2656 12.8362 12.6084L13.8215 14.062H13.3125C12.8983 14.062 12.5625 14.3978 12.5625 14.812C12.5625 15.2262 12.8983 15.562 13.3125 15.562H14.2565V15.9819H13.3125C12.8983 15.9819 12.5625 16.3177 12.5625 16.7319C12.5625 17.1461 12.8983 17.4819 13.3125 17.4819H14.2565V18.3625C14.2565 18.7767 14.5922 19.1125 15.0065 19.1125C15.4207 19.1125 15.7565 18.7767 15.7565 18.3625V17.4819H16.7004C17.1146 17.4819 17.4504 17.1461 17.4504 16.7319C17.4504 16.3177 17.1146 15.9819 16.7004 15.9819H15.7565V15.562H16.7004C17.1146 15.562 17.4504 15.2262 17.4504 14.812C17.4504 14.3978 17.1146 14.062 16.7004 14.062H16.1913L17.1766 12.6085C17.409 12.2656 17.3195 11.7992 16.9766 11.5668C16.6338 11.3344 16.1674 11.4239 15.935 11.7668L15.0064 13.1366L14.0778 11.7668Z" fill="#5151F2"/>
</svg>
