<svg width="16" height="16" viewBox="0 0 16 16" fill="none" xmlns="http://www.w3.org/2000/svg">
<path fill-rule="evenodd" clip-rule="evenodd" d="M3.75736 10.1215C3.17157 10.7073 3.17157 11.657 3.75736 12.2428C4.34315 12.8286 5.29289 12.8286 5.87868 12.2428L6.23223 11.8892C6.52513 11.5963 7 11.5963 7.29289 11.8892C7.58579 12.1821 7.58579 12.657 7.29289 12.9499L6.93934 13.3034C5.76777 14.475 3.86827 14.475 2.6967 13.3034C1.52513 12.1319 1.52513 10.2324 2.6967 9.06081L5.34838 6.40912C6.51996 5.23755 8.41945 5.23755 9.59102 6.40912C9.88392 6.70202 9.88392 7.17689 9.59102 7.46978C9.29813 7.76268 8.82326 7.76268 8.53036 7.46978C7.94458 6.884 6.9948 6.88403 6.40901 7.46982L3.75736 10.1215ZM12.2426 5.87882C12.8284 5.29304 12.8284 4.34329 12.2426 3.7575C11.6569 3.17172 10.7071 3.17172 10.1213 3.7575L9.76777 4.11106C9.47488 4.40395 9 4.40395 8.70711 4.11106C8.41422 3.81816 8.41422 3.34329 8.70711 3.0504L9.06066 2.69684C10.2322 1.52527 12.1317 1.52527 13.3033 2.69684C14.4749 3.86842 14.4749 5.76791 13.3033 6.93948L10.6517 9.59113L10.651 9.59182C9.47934 10.7627 7.58033 10.7625 6.40898 9.59117C6.11609 9.29828 6.11609 8.8234 6.40898 8.53051C6.70187 8.23762 7.17675 8.23762 7.46964 8.53051C8.05543 9.1163 9.00517 9.1163 9.59096 8.53051L9.59156 8.5299L12.2426 5.87882Z" fill="#3E4651"/>
</svg>
