<svg width="107" height="16" viewBox="0 0 161 24" fill="none" xmlns="http://www.w3.org/2000/svg" role="img" aria-label="弥生請求 Next"><path d="M50.2976 20.9498H40.6945V15.7394V15.4874H47.1857C47.3246 15.4874 47.4377 15.3742 47.4377 15.2353V13.1933C47.4377 13.0544 47.3246 12.9413 47.1857 12.9413H40.7048V12.6892L40.6945 7.73596V7.48393H40.9568H48.6465C48.7854 7.48393 48.8985 7.37077 48.8985 7.23189V5.18988C48.8985 5.05101 48.7854 4.93785 48.6465 4.93785H40.9465H40.6945V0.252036C40.6945 0.113159 40.5762 0 40.4373 0H38.4467C38.3079 0 38.1947 0.113159 38.1947 0.252036V4.68581V4.93785H32.3825L32.4905 4.60351C32.7682 3.75482 33.0048 2.8907 33.19 2.00086C33.2209 1.84141 33.1026 1.69224 32.938 1.69224H30.8342C30.7159 1.69224 30.6131 1.77454 30.5873 1.8877C29.7335 5.59623 28.1904 7.99828 27.3777 9.07844C27.2903 9.1916 27.316 9.35105 27.4343 9.43335L29.1008 10.6061C29.214 10.6832 29.3683 10.6627 29.4506 10.5495C29.9392 9.90141 30.5976 8.92413 31.2509 7.61252L31.3229 7.47364H38.1896V12.679V12.931H31.7086C31.5698 12.931 31.4566 13.0441 31.4566 13.183V15.225C31.4566 15.3639 31.5698 15.4771 31.7086 15.4771H38.1896V20.6875V20.9396H28.5968C28.4579 20.9396 28.3447 21.0527 28.3447 21.1916V23.2336C28.3447 23.3725 28.4579 23.4856 28.5968 23.4856L50.2873 23.4959C50.4262 23.4959 50.5393 23.3828 50.5393 23.2439V21.1916C50.5393 21.0527 50.4262 20.9396 50.2873 20.9396L50.2976 20.9498Z" fill="#231815"/><path d="M23.2423 5.72482L23.2937 3.61594C23.2937 3.47192 23.1805 3.35876 23.0417 3.35876H14.493L14.601 3.02957C14.8788 2.18603 15.1103 1.30647 15.3006 0.406343C15.3314 0.252035 15.2131 0.10287 15.0537 0.0977268L12.9705 0.0617218C12.8522 0.0617218 12.7493 0.144019 12.7236 0.262322C11.8646 4.02229 10.2701 6.48607 9.4523 7.48907C9.35972 7.60223 9.37515 7.77197 9.49345 7.85941L11.1857 9.10416C11.2989 9.18645 11.448 9.17102 11.5303 9.05787C12.019 8.40977 12.6928 7.40677 13.3666 6.06429L13.4386 5.92542H15.7583V19.5199C15.7583 20.4252 15.0228 21.1607 14.1227 21.1607H11.9212C11.7515 21.1607 11.6332 21.3253 11.6795 21.4848L12.2916 23.5319C12.3224 23.6399 12.4202 23.712 12.5333 23.712H15.2234C16.9311 23.712 18.3147 22.3283 18.3147 20.6155V5.92027H18.5667L22.9954 5.97685C23.1343 5.97685 23.2474 5.86884 23.2526 5.72996L23.2423 5.72482Z" fill="#231815"/><path d="M8.15612 11.0279H3.1977C3.04339 11.0279 2.92509 10.889 2.95081 10.7347L3.35201 8.33261C3.37258 8.20916 3.47545 8.12172 3.5989 8.12172H7.68291C7.82179 8.12172 7.93495 8.00856 7.93495 7.86969V1.02357C7.93495 0.884689 7.82179 0.77153 7.68291 0.77153H0.728772C0.589895 0.77153 0.476737 0.884689 0.476737 1.02357V2.8804C0.476737 3.01928 0.589895 3.13244 0.728772 3.13244H5.39915V5.69395C5.39915 5.83282 5.286 5.94598 5.14712 5.94598H1.37687C1.25342 5.94598 1.15055 6.03342 1.12997 6.15687L0.00352535 12.9104C-0.0221926 13.0647 0.0961117 13.2036 0.25042 13.2036H5.46088C5.6049 13.2036 5.71806 13.3219 5.71291 13.4659L5.63062 15.3485C5.61004 15.868 5.58947 16.264 5.58947 16.2949L5.57404 16.4955C5.43002 18.4861 5.26028 20.7441 2.67819 21.0476C2.03524 21.1196 1.37686 21.1453 1.07854 21.1504C0.996239 21.1504 0.939661 21.2327 0.965379 21.315L1.72149 23.712H2.30271C4.12354 23.712 5.29628 23.249 6.26842 22.2975C7.87322 20.7287 8.03782 18.4552 8.15612 16.7938L8.1767 16.4955L8.4133 11.3005C8.41844 11.1564 8.30528 11.033 8.16126 11.033L8.15612 11.0279Z" fill="#231815"/><path d="M12.9037 18.1517L14.0404 11.3159C14.0661 11.1616 13.9478 11.0227 13.7935 11.0227H11.7206C11.5972 11.0227 11.4892 11.1102 11.4737 11.2336L10.337 18.0694C10.3113 18.2238 10.4296 18.3626 10.5839 18.3626H12.6568C12.7802 18.3626 12.8882 18.2752 12.9037 18.1517Z" fill="#231815"/><path d="M22.3833 11.0176H20.2538C20.0995 11.0176 19.9812 11.1565 20.0018 11.3108L21.0922 18.1466C21.1128 18.27 21.2157 18.3575 21.3443 18.3575H23.4737C23.628 18.3575 23.7463 18.2186 23.7258 18.0643L22.6353 11.2285C22.6148 11.105 22.5119 11.0176 22.3833 11.0176Z" fill="#231815"/><path d="M149.116 11.1462L145.541 15.7908L141.941 11.1462H139.534L144.271 17.4419L139.534 23.7377H141.977L145.541 19.093L149.147 23.7377H151.549L146.812 17.4419L151.549 11.1462H149.116Z" fill="#231815"/><path d="M160.35 11.1513H156.688V7.49423C156.688 7.39651 156.611 7.31935 156.513 7.31935H154.821C154.723 7.31935 154.646 7.39651 154.646 7.49423V11.1513H152.902C152.804 11.1513 152.727 11.2285 152.727 11.3262V12.931C152.727 13.0287 152.804 13.1059 152.902 13.1059H154.646V21.3768C154.646 22.6781 155.7 23.7274 157.001 23.7274H160.35C160.448 23.7274 160.525 23.6503 160.525 23.5525V21.9477C160.525 21.85 160.448 21.7728 160.35 21.7728H157.917C157.238 21.7728 156.688 21.2225 156.688 20.5487V13.1059H160.35C160.448 13.1059 160.525 13.0287 160.525 12.931V11.3262C160.525 11.2285 160.448 11.1513 160.35 11.1513Z" fill="#231815"/><path d="M124.01 6.73811H121.891C121.799 6.73811 121.721 6.81527 121.721 6.90785V19.3965C121.721 19.5714 121.495 19.6331 121.403 19.4891L113.512 6.82041C113.481 6.76897 113.425 6.73811 113.368 6.73811H111.126C111.033 6.73811 110.956 6.81527 110.956 6.90785V23.5679C110.956 23.6605 111.033 23.7377 111.126 23.7377H112.777C112.869 23.7377 112.947 23.6605 112.947 23.5679V10.3283C112.947 10.1535 113.173 10.0917 113.265 10.2358L121.624 23.6605C121.655 23.712 121.711 23.7428 121.768 23.7428H124.01C124.103 23.7428 124.18 23.6657 124.18 23.5731V6.90785C124.18 6.81527 124.103 6.73811 124.01 6.73811Z" fill="#231815"/><path d="M138.227 14.2683C137.512 12.2109 135.743 10.781 132.708 10.781C131.006 10.781 129.694 11.2439 128.748 12.0103C127.487 13.0339 126.86 14.6078 126.798 16.3926C126.793 16.4852 126.793 16.5829 126.793 16.6858V19.021C126.855 20.5898 127.601 21.9683 128.748 22.8736C129.627 23.5834 130.748 24 131.962 24H133.454C135.532 24 137.415 22.6832 138.217 20.775C138.222 20.7544 138.232 20.7338 138.232 20.7081C138.232 20.6207 138.155 20.5384 138.052 20.5384H137.183L136.262 20.5538C136.201 20.5538 136.154 20.5795 136.124 20.6258C135.527 21.5259 134.534 22.0557 133.454 22.0557H131.962C130.214 22.0557 128.804 20.6927 128.748 18.9387V18.1569H138.274C138.335 18.1569 138.392 18.1363 138.443 18.1106C138.541 18.0489 138.618 17.9409 138.618 17.8123V16.6858C138.618 16.5881 138.618 16.4852 138.613 16.3926C138.587 15.6365 138.469 14.9216 138.227 14.2683ZM128.758 16.3926C128.866 14.3403 130.1 12.7304 132.713 12.7304C135.326 12.7304 136.556 14.3403 136.658 16.3926H128.758Z" fill="#231815"/><path d="M63.7481 4.55722H54.8085C54.6267 4.55722 54.4793 4.7046 54.4793 4.88641V6.5838C54.4793 6.7656 54.6267 6.91299 54.8085 6.91299H63.7481C63.9299 6.91299 64.0773 6.7656 64.0773 6.5838V4.88641C64.0773 4.7046 63.9299 4.55722 63.7481 4.55722Z" fill="#231815"/><path d="M62.8119 8.02914H56.0275C55.8457 8.02914 55.6983 8.17653 55.6983 8.35833V10.0557C55.6983 10.2375 55.8457 10.3849 56.0275 10.3849H62.8119C62.9937 10.3849 63.1411 10.2375 63.1411 10.0557V8.35833C63.1411 8.17653 62.9937 8.02914 62.8119 8.02914Z" fill="#231815"/><path d="M77.4866 8.63094H72.0344V7.50449H76.643C76.8231 7.50449 76.9722 7.38104 76.9722 7.22159V5.76596C76.9722 5.61165 76.8231 5.48306 76.643 5.48306H72.0344V4.5675H77.0442C77.2243 4.5675 77.3734 4.41834 77.3734 4.23831V2.54092C77.3734 2.3609 77.2243 2.21173 77.0442 2.21173H72.0344V0.426908C72.0344 0.246882 71.8852 0.0977173 71.7052 0.0977173H70.0078C69.8278 0.0977173 69.6786 0.246882 69.6786 0.426908V2.21173H65.0597C64.8797 2.21173 64.7305 2.3609 64.7305 2.54092V4.23831C64.7305 4.41834 64.8797 4.5675 65.0597 4.5675H69.6786V5.48306H65.5483C65.3683 5.48306 65.2191 5.6065 65.2191 5.76596V7.22159C65.2191 7.3759 65.3683 7.50449 65.5483 7.50449H69.6786V8.63094H64.0361C63.8561 8.63094 63.7069 8.7801 63.7069 8.96013V10.6575C63.7069 10.8375 63.8561 10.9867 64.0361 10.9867H77.4866C77.6666 10.9867 77.8158 10.8375 77.8158 10.6575V8.96013C77.8158 8.7801 77.6666 8.63094 77.4866 8.63094Z" fill="#231815"/><path d="M62.8119 11.5011H56.0275C55.8457 11.5011 55.6983 11.6485 55.6983 11.8303V13.5276C55.6983 13.7094 55.8457 13.8568 56.0275 13.8568H62.8119C62.9937 13.8568 63.1411 13.7094 63.1411 13.5276V11.8303C63.1411 11.6485 62.9937 11.5011 62.8119 11.5011Z" fill="#231815"/><path d="M62.8119 15.2045H56.0172C55.8372 15.2045 55.688 15.3536 55.688 15.5336V23.3262C55.688 23.5062 55.8372 23.6554 56.0172 23.6554H57.7146C57.8947 23.6554 58.0438 23.5062 58.0438 23.3262V23.0844H60.7854V23.3005C60.7854 23.4856 60.9345 23.6348 61.1145 23.6348H62.8119C62.992 23.6348 63.1411 23.4856 63.1411 23.3005V17.2362V15.5388C63.1411 15.3588 62.992 15.2096 62.8119 15.2096V15.2045ZM58.0438 20.7287V17.5602H60.7854V20.7287H58.0438Z" fill="#231815"/><path d="M75.7738 11.8405H66.0318C66.0318 11.8405 65.9958 11.8611 65.9701 11.8662C65.9598 11.8662 65.9547 11.8714 65.9444 11.8765C65.8672 11.8971 65.8107 11.9383 65.7695 12C65.7335 12.0463 65.7078 12.0977 65.7026 12.1543C65.7026 12.1543 65.7026 12.1594 65.7026 12.1646V23.3056C65.7026 23.4856 65.8518 23.6296 66.0318 23.6296H67.7292C67.9092 23.6296 68.0584 23.4856 68.0584 23.3056V19.6897H73.8398C73.8347 20.1011 73.8141 20.6001 73.7626 20.9241C73.7369 21.063 73.6238 21.171 73.4849 21.1864C73.13 21.2276 72.5282 21.2276 71.9778 21.2224H71.8595C71.6795 21.2224 71.5303 21.3665 71.5303 21.5516V23.249C71.5303 23.429 71.6743 23.5782 71.8595 23.5782H71.9727C72.091 23.5782 72.2093 23.5782 72.3224 23.5782C73.7164 23.5782 74.6679 23.5268 75.3777 22.8221C76.103 22.0969 76.2007 21.0013 76.2059 19.4479C76.2059 19.4479 76.2059 19.4479 76.2059 19.4428V12.1697C76.2059 11.9897 76.0155 11.8405 75.7789 11.8405H75.7738ZM73.8449 15.189H68.0635V14.1912H73.8449V15.189ZM68.0584 16.9378H73.8398V17.9357H68.0584V16.9378Z" fill="#231815"/><path d="M56.7991 3.39991H62.0404C62.1793 3.39991 62.2924 3.25075 62.2924 3.07072V1.37333C62.2924 1.19331 62.1793 1.04414 62.0404 1.04414H56.7991C56.6602 1.04414 56.547 1.19331 56.547 1.37333V3.07072C56.547 3.25075 56.6602 3.39991 56.7991 3.39991Z" fill="#231815"/><path d="M86.7193 12.9053C86.7193 12.9053 86.7296 12.9156 86.7348 12.9207C87.0485 13.3116 87.1154 13.3888 87.4343 13.7951H87.4806L89.0648 12.2366C89.1882 12.1183 89.1985 11.9228 89.0905 11.7891C88.2984 10.817 86.8016 9.3099 85.6855 8.40977C85.5466 8.29661 85.3511 8.31204 85.2277 8.44577C84.9293 8.76982 84.3893 9.36133 84.0807 9.69052C83.9572 9.82425 83.9624 10.0351 84.1012 10.1586C84.5436 10.5701 84.7905 10.8118 85.1557 11.177L86.7193 12.9053Z" fill="#231815"/><path d="M104.29 4.16117H101.718L102.433 3.05015C102.531 2.89584 102.49 2.68496 102.33 2.58723C101.744 2.21689 101.193 1.88256 100.705 1.57908C99.8458 1.05444 99.0845 0.591514 98.4467 0.123447C98.2976 0.0154319 98.0918 0.0411493 97.9838 0.18517L96.9242 1.55851C96.8111 1.70767 96.8368 1.91856 96.9859 2.03172C97.7163 2.56665 98.529 3.06558 99.4549 3.62623C99.7378 3.80112 100.026 3.976 100.324 4.16117H94.4707V0.534934C94.4707 0.349765 94.3216 0.200601 94.1364 0.200601H92.403C92.2178 0.200601 92.0687 0.349765 92.0687 0.534934V4.16117H82.2958C82.1107 4.16117 81.9615 4.31033 81.9615 4.4955V6.22889C81.9615 6.41406 82.1107 6.56322 82.2958 6.56322H92.0687V19.8697C92.0687 20.6618 91.4052 21.2996 90.5925 21.2996H88.4887C88.3036 21.2996 88.1544 21.4488 88.1544 21.6339V23.3673C88.1544 23.5525 88.3036 23.7017 88.4887 23.7017H90.5925C92.7322 23.7017 94.4707 21.9837 94.4707 19.8697V13.039C96.0961 15.796 98.6833 19.129 102.618 21.7471C102.772 21.85 102.983 21.8037 103.086 21.6494L104.028 20.1937C104.125 20.0394 104.084 19.8337 103.93 19.736C101.553 18.1517 99.7121 16.2486 98.3079 14.4123C98.3541 14.4021 98.3953 14.3763 98.4364 14.3455C99.6298 13.327 102.099 10.5341 102.994 9.51565C103.117 9.37677 103.102 9.16588 102.963 9.04244L101.656 7.9057C101.517 7.7874 101.307 7.79769 101.188 7.93656C99.8767 9.43849 97.8604 11.6605 96.9962 12.4269C96.9859 12.4372 96.9757 12.4526 96.9654 12.4681C95.4995 10.1432 94.7536 8.17317 94.5067 7.44278C94.5016 7.42735 94.4913 7.41192 94.481 7.39649V6.56322H104.3C104.485 6.56322 104.634 6.41406 104.634 6.22889V4.4955C104.634 4.31033 104.485 4.16117 104.3 4.16117" fill="#231815"/><path d="M90.4382 16.5572C90.2736 16.1354 89.9804 15.369 89.8158 14.937C89.7489 14.757 89.5432 14.6747 89.3683 14.7518C87.5115 15.5799 83.304 18.162 82.0747 18.9233C81.9152 19.021 81.8689 19.2267 81.9667 19.381C82.2084 19.772 82.6405 20.4663 82.8822 20.8521C82.9799 21.0064 83.1857 21.0579 83.34 20.9601C85.0374 19.9108 88.7459 17.6682 90.2633 16.979C90.4227 16.907 90.4999 16.7218 90.433 16.5572" fill="#231815"/><path d="M86.7193 12.9053C86.7193 12.9053 86.7296 12.9156 86.7348 12.9207C87.0485 13.3116 87.1154 13.3888 87.4343 13.7951H87.4806L89.0648 12.2366C89.1882 12.1183 89.1985 11.9228 89.0905 11.7891C88.2984 10.817 86.8016 9.3099 85.6855 8.40977C85.5466 8.29661 85.3511 8.31204 85.2277 8.44577C84.9293 8.76982 84.3893 9.36133 84.0807 9.69052C83.9572 9.82425 83.9624 10.0351 84.1012 10.1586C84.5436 10.5701 84.7905 10.8118 85.1557 11.177L86.7193 12.9053Z" fill="#060001"/><path d="M104.29 4.16117H101.718L102.433 3.05015C102.531 2.89584 102.49 2.68496 102.33 2.58723C101.744 2.21689 101.193 1.88256 100.705 1.57908C99.8458 1.05444 99.0845 0.591514 98.4467 0.123447C98.2976 0.0154319 98.0918 0.0411493 97.9838 0.18517L96.9242 1.55851C96.8111 1.70767 96.8368 1.91856 96.9859 2.03172C97.7163 2.56665 98.529 3.06558 99.4549 3.62623C99.7378 3.80112 100.026 3.976 100.324 4.16117H94.4707V0.534934C94.4707 0.349765 94.3216 0.200601 94.1364 0.200601H92.403C92.2178 0.200601 92.0687 0.349765 92.0687 0.534934V4.16117H82.2958C82.1107 4.16117 81.9615 4.31033 81.9615 4.4955V6.22889C81.9615 6.41406 82.1107 6.56322 82.2958 6.56322H92.0687V19.8697C92.0687 20.6618 91.4052 21.2996 90.5925 21.2996H88.4887C88.3036 21.2996 88.1544 21.4488 88.1544 21.6339V23.3673C88.1544 23.5525 88.3036 23.7017 88.4887 23.7017H90.5925C92.7322 23.7017 94.4707 21.9837 94.4707 19.8697V13.039C96.0961 15.796 98.6833 19.129 102.618 21.7471C102.772 21.85 102.983 21.8037 103.086 21.6494L104.028 20.1937C104.125 20.0394 104.084 19.8337 103.93 19.736C101.553 18.1517 99.7121 16.2486 98.3079 14.4123C98.3541 14.4021 98.3953 14.3763 98.4364 14.3455C99.6298 13.327 102.099 10.5341 102.994 9.51565C103.117 9.37677 103.102 9.16588 102.963 9.04244L101.656 7.9057C101.517 7.7874 101.307 7.79769 101.188 7.93656C99.8767 9.43849 97.8604 11.6605 96.9962 12.4269C96.9859 12.4372 96.9757 12.4526 96.9654 12.4681C95.4995 10.1432 94.7536 8.17317 94.5067 7.44278C94.5016 7.42735 94.4913 7.41192 94.481 7.39649V6.56322H104.3C104.485 6.56322 104.634 6.41406 104.634 6.22889V4.4955C104.634 4.31033 104.485 4.16117 104.3 4.16117" fill="#060001"/><path d="M90.4382 16.5572C90.2736 16.1354 89.9804 15.369 89.8158 14.937C89.7489 14.757 89.5432 14.6747 89.3683 14.7518C87.5115 15.5799 83.304 18.162 82.0747 18.9233C81.9152 19.021 81.8689 19.2267 81.9667 19.381C82.2084 19.772 82.6405 20.4663 82.8822 20.8521C82.9799 21.0064 83.1857 21.0579 83.34 20.9601C85.0374 19.9108 88.7459 17.6682 90.2633 16.979C90.4227 16.907 90.4999 16.7218 90.433 16.5572" fill="#060001"/></svg>
