<svg width="16" height="16" viewBox="0 0 16 16" fill="none" xmlns="http://www.w3.org/2000/svg">
<path fill-rule="evenodd" clip-rule="evenodd" d="M3.8237 5.21991C4.08885 4.90169 4.56177 4.85866 4.88 5.12381L8.00035 7.72374L11.1198 5.12387C11.438 4.85868 11.9109 4.90165 12.1761 5.21984C12.4413 5.53803 12.3984 6.01096 12.0802 6.27615L8.80066 9.00939C8.33713 9.39571 7.66379 9.39576 7.20021 9.00949L3.9198 6.27621C3.60158 6.01106 3.55855 5.53814 3.8237 5.21991Z" fill="#CF0F39"/>
<path fill-rule="evenodd" clip-rule="evenodd" d="M2.75 3.5C2.61193 3.5 2.5 3.61193 2.5 3.75V12.25C2.5 12.3881 2.61193 12.5 2.75 12.5H13.25C13.3881 12.5 13.5 12.3881 13.5 12.25V3.75C13.5 3.61193 13.3881 3.5 13.25 3.5H2.75ZM1 3.25C1 2.55964 1.55964 2 2.25 2H13.75C14.4404 2 15 2.55964 15 3.25V12.75C15 13.4404 14.4404 14 13.75 14H2.25C1.55964 14 1 13.4404 1 12.75V3.25Z" fill="#CF0F39"/>
</svg>
