<svg width="24" height="24" viewBox="0 0 24 24" fill="none" xmlns="http://www.w3.org/2000/svg">
<path d="M19.875 16.5C20.4963 16.5 21 17.0037 21 17.625C21 18.2463 20.4963 18.75 19.875 18.75H4.125C3.50368 18.75 3 18.2463 3 17.625C3 17.0037 3.50368 16.5 4.125 16.5H19.875ZM19.875 10.875C20.4963 10.875 21 11.3787 21 12C21 12.6213 20.4963 13.125 19.875 13.125H4.125C3.50368 13.125 3 12.6213 3 12C3 11.3787 3.50368 10.875 4.125 10.875H19.875ZM19.875 5.25C20.4963 5.25 21 5.75368 21 6.375C21 6.99632 20.4963 7.5 19.875 7.5H4.125C3.50368 7.5 3 6.99632 3 6.375C3 5.75368 3.50368 5.25 4.125 5.25H19.875Z" fill="#65707D"/>
</svg>
