<svg width="24" height="24" viewBox="0 0 24 24" fill="none" xmlns="http://www.w3.org/2000/svg">
<path fill-rule="evenodd" clip-rule="evenodd" d="M3 6.375C3 5.75368 3.50368 5.25 4.125 5.25H13.875C14.4963 5.25 15 5.75368 15 6.375C15 6.99632 14.4963 7.5 13.875 7.5H4.125C3.50368 7.5 3 6.99632 3 6.375ZM4.125 10.875C3.50368 10.875 3 11.3787 3 12C3 12.6213 3.50368 13.125 4.125 13.125H9.75C10.3713 13.125 10.875 12.6213 10.875 12C10.875 11.3787 10.3713 10.875 9.75 10.875H4.125ZM4.125 16.5C3.50368 16.5 3 17.0037 3 17.625C3 18.2463 3.50368 18.75 4.125 18.75H13.875C14.4963 18.75 15 18.2463 15 17.625C15 17.0037 14.4963 16.5 13.875 16.5H4.125ZM20.6705 7.17782C21.1098 6.73848 21.1098 6.02617 20.6705 5.58683C20.2312 5.14749 19.5188 5.14749 19.0795 5.58683L13.458 11.2083C13.0187 11.6477 13.0187 12.36 13.458 12.7993L19.0795 18.4208C19.5188 18.8602 20.2312 18.8602 20.6705 18.4208C21.1098 17.9815 21.1098 17.2692 20.6705 16.8298L15.8445 12.0038L20.6705 7.17782Z" fill="#65707D"/>
</svg>
