<svg width="24" height="24" viewBox="0 0 24 24" fill="none" xmlns="http://www.w3.org/2000/svg">
<path d="M16.625 14.3953C12.8525 14.3953 10.22 17.1628 10.22 20.9428C10.22 21.5728 10.73 22.0903 11.3675 22.0903H21.89C22.52 22.0903 23.0375 21.5803 23.0375 20.9428C23.0375 17.1628 20.405 14.3953 16.6325 14.3953H16.625ZM12.635 19.8028C13.055 17.9578 14.525 16.6828 16.625 16.6828C18.725 16.6828 20.1875 17.9578 20.615 19.8028H12.6275H12.635ZM3.56751 19.7953H8.54001C8.48751 20.1703 8.46501 20.5303 8.46501 20.9428C8.46501 21.3553 8.56251 21.7378 8.73501 22.0903H2.34501C1.71501 22.0903 1.19751 21.5803 1.19751 20.9428C1.19751 16.4503 3.87501 13.1953 7.57251 13.2028C9.06501 13.2028 10.3775 13.7353 11.42 14.6503C10.8125 15.1228 10.28 15.6778 9.84501 16.3228C9.21501 15.7903 8.44251 15.4903 7.57251 15.4903C5.46501 15.4903 3.91251 17.2153 3.56751 19.8028V19.7953ZM16.73 13.1953C18.875 13.1953 20.63 11.4328 20.63 9.29531C20.63 7.15781 18.875 5.39531 16.73 5.39531C14.585 5.39531 12.83 7.15781 12.83 9.29531C12.83 11.4328 14.5775 13.1953 16.73 13.1953ZM16.73 7.62281C17.6525 7.62281 18.4025 8.37281 18.4025 9.29531C18.4025 10.2178 17.6525 10.9678 16.73 10.9678C15.8075 10.9678 15.0575 10.2178 15.0575 9.29531C15.0575 8.37281 15.8075 7.62281 16.73 7.62281ZM7.49751 11.9953C9.64251 11.9953 11.3975 10.2328 11.3975 8.09531C11.3975 5.95781 9.64251 4.19531 7.49751 4.19531C5.35251 4.19531 3.59751 5.95781 3.59751 8.09531C3.59751 10.2328 5.34501 11.9953 7.49751 11.9953ZM7.49751 6.42281C8.42001 6.42281 9.17001 7.17281 9.17001 8.09531C9.17001 9.01781 8.42001 9.76781 7.49751 9.76781C6.57501 9.76781 5.82501 9.01781 5.82501 8.09531C5.82501 7.17281 6.57501 6.42281 7.49751 6.42281Z" fill="#3E4651"/>
</svg>
