<svg width="16" height="16" viewBox="0 0 16 16" fill="none" xmlns="http://www.w3.org/2000/svg">
<path d="M8 7.5C11.3136 7.5 13.9998 10.4543 14 14.0986C14 14.5962 13.6331 15 13.1807 15H2.81934C2.36693 15 2 14.5962 2 14.0986C2.00021 10.4543 4.68642 7.5 8 7.5ZM8 9.30176C5.87109 9.30176 4.09817 10.9795 3.71484 13.1982H12.2852C11.9018 10.9795 10.1289 9.30176 8 9.30176ZM8 1C9.65685 1 11 2.34315 11 4C11 5.65685 9.65685 7 8 7C6.34315 7 5 5.65685 5 4C5 2.34315 6.34315 1 8 1ZM8 2.65039C7.25468 2.65039 6.65039 3.25468 6.65039 4C6.65039 4.74532 7.25468 5.34961 8 5.34961C8.74532 5.34961 9.34961 4.74532 9.34961 4C9.34961 3.25468 8.74532 2.65039 8 2.65039Z" fill="#3E4651"/>
</svg>
