<svg width="24" height="24" viewBox="0 0 24 24" fill="none" xmlns="http://www.w3.org/2000/svg">
<path d="M12.0001 7.875C10.9646 7.875 10.1251 8.71447 10.1251 9.75C10.1251 10.3713 9.62144 10.875 9.00012 10.875C8.3788 10.875 7.87512 10.3713 7.87512 9.75C7.87512 7.47183 9.72195 5.625 12.0001 5.625C14.2783 5.625 16.1251 7.47183 16.1251 9.75C16.1251 11.2016 15.2723 12.088 14.5485 12.6223C14.2554 12.8386 13.9442 13.0256 13.7103 13.1661C13.6661 13.1927 13.6246 13.2176 13.5865 13.2407C13.3728 13.3707 13.2843 13.4361 13.2554 13.4573C13.2428 13.4666 13.2416 13.4675 13.2464 13.4617C13.2301 13.4817 13.2131 13.5011 13.1954 13.5199L13.1936 13.5243C13.1872 13.5393 13.168 13.5845 13.1502 13.6738C13.1376 13.7364 13.131 13.7954 13.1277 13.8382C13.1261 13.8589 13.1254 13.8737 13.1252 13.8808L13.1251 13.884C13.1202 14.5012 12.6184 15 12.0001 15C11.3788 15 10.8751 14.4963 10.8751 13.875L10.8751 13.8727L10.8751 13.87L10.8752 13.8638L10.8754 13.848C10.8756 13.836 10.8759 13.821 10.8765 13.8033C10.8777 13.7679 10.88 13.7212 10.8843 13.6657C10.8927 13.5561 10.9095 13.4043 10.9438 13.2325C11.0021 12.9412 11.144 12.4144 11.5415 11.9937C11.8073 11.689 12.1792 11.4631 12.4037 11.3267L12.4177 11.3182C12.4721 11.2851 12.5249 11.2533 12.5763 11.2223C12.8089 11.0821 13.0128 10.9593 13.2123 10.812C13.6724 10.4724 13.8751 10.1734 13.8751 9.75C13.8751 8.71447 13.0357 7.875 12.0001 7.875Z" fill="#3E4651"/>
<path d="M13.2375 17.0625C13.2375 17.7874 12.6499 18.375 11.925 18.375C11.2002 18.375 10.6125 17.7874 10.6125 17.0625C10.6125 16.3376 11.2002 15.75 11.925 15.75C12.6499 15.75 13.2375 16.3376 13.2375 17.0625Z" fill="#3E4651"/>
<path fill-rule="evenodd" clip-rule="evenodd" d="M11.925 1.5C6.12606 1.5 1.42505 6.20101 1.42505 12C1.42505 17.799 6.12606 22.5 11.925 22.5C17.724 22.5 22.425 17.799 22.425 12C22.425 6.20101 17.724 1.5 11.925 1.5ZM3.67505 12C3.67505 7.44365 7.3687 3.75 11.925 3.75C16.4814 3.75 20.175 7.44365 20.175 12C20.175 16.5563 16.4814 20.25 11.925 20.25C7.3687 20.25 3.67505 16.5563 3.67505 12Z" fill="#3E4651"/>
</svg>
