<svg width="24" height="24" viewBox="0 0 24 24" fill="none" xmlns="http://www.w3.org/2000/svg">
<path fill-rule="evenodd" clip-rule="evenodd" d="M10.875 1.5C10.2537 1.5 9.75 2.00368 9.75 2.625C9.75 3.24632 10.2537 3.75 10.875 3.75H3.75H2.625C2.00368 3.75 1.5 4.25368 1.5 4.875C1.5 5.49632 2.00368 6 2.625 6H3.75V20.25C3.75 21.4926 4.75736 22.5 6 22.5H18C19.2426 22.5 20.25 21.4926 20.25 20.25V6H21.375C21.9963 6 22.5 5.49632 22.5 4.875C22.5 4.25368 21.9963 3.75 21.375 3.75H20.25H13.125C13.7463 3.75 14.25 3.24632 14.25 2.625C14.25 2.00368 13.7463 1.5 13.125 1.5H10.875ZM6 6H18V20.25H6V6ZM9.75 8.4375C10.2678 8.4375 10.6875 8.85723 10.6875 9.375V16.875C10.6875 17.3928 10.2678 17.8125 9.75 17.8125C9.23223 17.8125 8.8125 17.3928 8.8125 16.875V9.375C8.8125 8.85723 9.23223 8.4375 9.75 8.4375ZM15.1875 9.375C15.1875 8.85723 14.7678 8.4375 14.25 8.4375C13.7322 8.4375 13.3125 8.85723 13.3125 9.375V16.875C13.3125 17.3928 13.7322 17.8125 14.25 17.8125C14.7678 17.8125 15.1875 17.3928 15.1875 16.875V9.375Z" fill="#65707D"/>
</svg>
